<?xml version="1.0" standalone="no"?>
<!DOCTYPE svg PUBLIC "-//W3C//DTD SVG 20010904//EN"
 "http://www.w3.org/TR/2001/REC-SVG-20010904/DTD/svg10.dtd">
<svg version="1.0" xmlns="http://www.w3.org/2000/svg"
 width="1000.000000pt" height="1000.000000pt" viewBox="0 0 1000.000000 1000.000000"
 preserveAspectRatio="xMidYMid meet">

<g transform="translate(0.000000,1000.000000) scale(0.100000,-0.100000)"
fill="#000000" stroke="none">
<path d="M8075 9675 l-30 -14 35 6 c19 3 39 10 45 14 14 14 -16 10 -50 -6z"/>
<path d="M8180 9680 c8 -5 22 -9 30 -9 10 0 8 3 -5 9 -27 12 -43 12 -25 0z"/>
<path d="M8232 9640 c0 -19 2 -27 5 -17 2 9 2 25 0 35 -3 9 -5 1 -5 -18z"/>
<path d="M8032 9608 c-19 -19 -15 -41 6 -30 9 6 41 13 69 17 29 4 55 10 58 14
8 14 -119 13 -133 -1z"/>
<path d="M8220 9542 c0 -33 -2 -95 -5 -138 -3 -49 -2 -70 3 -54 14 39 23 250
12 250 -6 0 -10 -26 -10 -58z"/>
<path d="M8067 9559 c-18 -25 -13 -46 15 -55 25 -7 39 11 36 46 -4 32 -32 37
-51 9z m43 -17 c0 -13 -12 -22 -22 -16 -10 6 -1 24 13 24 5 0 9 -4 9 -8z"/>
<path d="M5960 9475 c0 -14 4 -25 9 -25 4 0 6 11 3 25 -2 14 -6 25 -8 25 -2 0
-4 -11 -4 -25z"/>
<path d="M5880 9450 c-13 -9 -13 -10 0 -9 8 0 24 4 35 9 l20 9 -20 0 c-11 0
-27 -4 -35 -9z"/>
<path d="M5998 9443 c6 -2 12 -15 12 -27 0 -22 -3 -23 -82 -22 -60 1 -82 -3
-86 -13 -3 -10 3 -12 26 -6 33 7 131 9 137 3 2 -2 1 -121 -2 -265 l-6 -261
-86 0 c-115 1 -131 -5 -131 -46 0 -32 -3 -35 -61 -56 -70 -26 -67 -40 10 -48
68 -6 65 -24 -9 -52 -33 -12 -60 -26 -60 -31 0 -4 27 -11 60 -15 33 -4 60 -11
60 -16 0 -5 -27 -21 -60 -35 -33 -15 -60 -30 -60 -33 0 -4 25 -11 55 -15 34
-4 55 -11 55 -19 0 -7 -25 -23 -55 -35 -30 -13 -55 -27 -55 -32 0 -5 18 -9 39
-9 85 0 95 -28 21 -56 -27 -11 -49 -23 -50 -29 0 -5 22 -11 50 -13 69 -4 66
-26 -7 -59 -49 -22 -55 -27 -38 -34 11 -4 37 -8 58 -8 57 -1 46 -31 -21 -55
-28 -10 -52 -22 -52 -26 0 -4 25 -11 55 -15 35 -4 55 -11 55 -20 0 -7 -25 -23
-55 -35 -30 -12 -55 -26 -55 -31 0 -5 22 -9 49 -9 84 0 79 -32 -9 -64 -59 -21
-52 -36 17 -36 23 0 44 -4 48 -9 8 -14 -21 -38 -62 -51 -50 -16 -64 -30 -31
-30 97 0 118 -35 38 -63 -27 -10 -50 -22 -50 -27 0 -6 23 -10 50 -10 42 0 50
-3 50 -19 0 -13 -16 -25 -57 -42 -52 -21 -55 -24 -33 -30 14 -4 40 -7 58 -8
24 -1 32 -6 32 -19 0 -13 -15 -23 -50 -36 -64 -23 -72 -36 -21 -36 88 0 95
-28 16 -61 -61 -25 -57 -39 13 -39 41 0 42 -1 42 -35 0 -34 1 -35 40 -35 35 0
40 -3 40 -24 0 -13 -17 -43 -39 -68 -29 -32 -40 -55 -43 -83 l-3 -39 -60 -3
c-80 -4 -115 -19 -115 -48 0 -26 17 -35 66 -35 l34 0 0 -180 0 -180 -25 0
c-13 0 -41 -9 -61 -20 -32 -18 -46 -20 -121 -14 l-86 7 7 116 6 116 -262 0
-263 0 3 -103 3 -102 -83 6 c-46 3 -135 9 -198 12 -105 6 -115 9 -115 27 0 21
-37 45 -72 45 l-23 0 3 174 c2 140 0 172 -11 164 -7 -6 -16 -8 -19 -4 -4 4 -1
12 7 17 12 9 12 10 -3 5 -17 -6 -36 18 -24 31 9 8 68 -37 62 -48 -7 -10 35
-12 59 -3 16 6 23 53 9 55 -5 0 -17 2 -28 5 -11 2 -56 5 -100 7 -44 2 -86 6
-92 10 -7 4 -15 1 -20 -6 -10 -17 -41 -29 -47 -18 -3 4 -8 22 -11 39 -4 26 -2
31 17 34 20 3 23 8 21 42 -2 21 -8 44 -13 52 -9 9 -6 15 8 23 24 13 32 5 32
-32 0 -17 3 -27 7 -23 4 4 6 22 5 41 -3 34 -1 35 33 35 32 0 35 2 35 29 0 28
3 30 53 39 l52 9 -30 12 c-16 7 -40 17 -52 22 -41 16 -28 39 21 39 62 0 64 13
5 34 -72 26 -63 56 18 56 43 0 37 9 -20 31 -51 20 -62 49 -20 50 15 1 39 4 53
8 23 6 20 9 -27 26 -37 13 -53 24 -53 37 0 15 8 18 45 18 25 0 45 4 45 9 0 4
-20 16 -45 25 -32 13 -45 23 -45 37 0 16 7 19 45 19 56 0 57 11 3 31 -60 22
-61 43 -1 55 l48 9 -49 25 c-27 14 -50 30 -50 35 -1 6 18 13 41 16 24 3 45 8
48 11 3 3 -18 15 -46 26 -62 26 -60 46 4 50 26 2 47 7 47 11 0 5 -20 16 -45
25 -25 10 -48 22 -51 28 -10 15 16 28 59 28 51 0 46 13 -13 34 -27 10 -50 24
-50 31 0 7 22 16 53 22 l52 10 -52 23 c-61 26 -70 50 -20 51 17 0 41 4 52 8
17 7 12 12 -32 31 -63 27 -70 50 -15 50 67 0 73 17 14 41 -62 26 -69 49 -14
49 20 0 44 4 52 10 11 7 8 11 -15 20 -17 7 -40 16 -52 21 -17 6 -23 17 -23 39
0 26 -5 31 -30 37 l-30 6 0 258 c0 161 -4 260 -10 264 -6 3 -10 -4 -11 -17 -1
-47 3 -454 4 -478 2 -25 1 -25 -82 -27 -104 -3 -111 -5 -111 -41 0 -26 -6 -32
-52 -52 -50 -21 -51 -23 -28 -30 14 -5 37 -8 52 -9 47 -2 42 -21 -11 -43 -28
-12 -51 -25 -51 -29 0 -9 38 -19 73 -19 44 0 32 -26 -23 -46 -27 -10 -50 -21
-50 -26 0 -4 23 -10 50 -14 30 -4 50 -12 50 -19 0 -7 -22 -21 -50 -31 -54 -20
-64 -33 -25 -35 14 -1 30 -3 35 -4 6 -1 17 -3 25 -4 34 -3 12 -30 -36 -46 -56
-19 -54 -32 6 -37 60 -5 58 -30 -5 -52 -59 -21 -57 -36 6 -36 36 0 44 -3 44
-18 0 -13 -15 -24 -50 -36 -28 -10 -49 -20 -46 -23 2 -2 25 -7 52 -11 26 -4
49 -12 51 -18 2 -6 -20 -22 -49 -35 l-53 -23 53 -9 c66 -11 67 -29 2 -53 -27
-10 -50 -21 -50 -25 0 -5 21 -9 47 -11 67 -4 69 -28 4 -53 -59 -22 -57 -35 5
-35 62 0 58 -24 -8 -54 l-53 -24 53 -7 c65 -9 67 -30 5 -54 -61 -24 -62 -31
-5 -31 45 0 52 -3 52 -19 0 -14 -13 -24 -45 -37 -52 -19 -49 -31 10 -36 53 -4
52 -26 -2 -47 -60 -23 -61 -29 -4 -37 48 -6 51 -8 51 -35 0 -26 3 -29 35 -29
34 0 36 -2 35 -32 0 -18 2 -63 4 -100 5 -67 1 -79 -21 -57 -8 8 -13 8 -17 0
-13 -20 -26 -12 -27 17 -1 21 -3 23 -6 6 -5 -25 -29 -34 -88 -34 -46 0 -65
-14 -65 -47 0 -21 5 -23 45 -23 41 0 45 -2 45 -25 0 -14 -6 -25 -12 -25 -7 -1
-52 -3 -100 -5 -53 -2 -88 0 -88 5 0 19 -28 10 -33 -10 -4 -15 -14 -20 -42
-20 -31 0 -35 3 -30 19 4 13 0 20 -13 23 -14 4 -18 0 -16 -16 1 -12 3 -27 3
-33 1 -16 101 -18 101 -3 0 6 9 10 20 10 11 0 20 -4 20 -8 0 -12 81 -6 89 6 4
7 12 8 21 2 8 -6 25 -10 36 -10 12 0 25 -7 28 -16 3 -8 2 -12 -4 -9 -6 3 -10
-1 -10 -10 0 -11 -5 -15 -15 -11 -8 3 -15 2 -15 -2 0 -4 -12 -7 -27 -8 -16 0
-116 -1 -225 -2 l-196 -2 5 -81 c5 -69 4 -83 -10 -91 -21 -11 -22 -58 -2 -84
8 -10 15 -22 15 -25 0 -3 -34 -9 -75 -12 -41 -4 -92 -10 -114 -13 -35 -6 -39
-4 -45 21 -17 67 -81 115 -153 115 -21 0 -43 4 -49 8 -7 4 -15 76 -20 184 l-9
178 51 10 c131 27 241 165 279 348 16 75 18 205 4 196 -5 -3 -9 -17 -10 -32
-1 -15 -7 12 -14 59 -7 47 -22 115 -34 151 -38 115 -123 236 -189 269 -15 7
-35 20 -44 28 -16 13 -18 12 -18 -13 0 -33 -23 -31 -28 2 -4 24 -17 29 -26 10
-4 -7 -5 -4 -3 7 3 15 -1 21 -14 21 -10 0 -15 -5 -11 -11 3 -5 -2 -4 -11 4
-15 12 -17 10 -17 -18 0 -21 -5 -31 -15 -31 -8 0 -15 7 -15 15 0 18 -1 18 -35
5 -17 -7 -24 -7 -20 0 3 6 13 10 22 10 9 0 13 3 10 7 -10 9 -58 -18 -51 -29 3
-4 2 -17 -1 -29 -6 -19 -8 -19 -24 -5 -10 9 -20 15 -22 14 -2 -2 2 3 10 10 8
6 10 12 4 12 -5 0 -18 -9 -28 -20 -14 -15 -31 -20 -69 -20 -28 0 -58 -5 -66
-10 -9 -6 13 -7 64 -4 60 4 76 3 70 -7 -5 -8 -3 -10 6 -4 17 11 152 6 164 -6
6 -5 24 -9 42 -9 34 0 113 -55 150 -106 34 -48 64 -148 64 -218 0 -83 -9 -90
-97 -82 -38 4 -97 9 -133 11 -35 3 -73 8 -84 11 -10 4 -22 0 -27 -7 -6 -10
-11 -11 -16 -3 -9 12 -105 26 -98 14 3 -5 -11 -8 -30 -7 -19 1 -30 4 -24 8 8
5 8 8 -1 11 -9 3 -16 56 -25 175 -7 110 -16 177 -24 187 -16 19 -79 21 -114 5
-47 -21 -59 -60 -55 -172 l3 -102 -35 -1 c-23 0 -35 -5 -36 -15 -1 -7 -2 -23
-3 -33 -1 -17 -7 -18 -76 -13 -79 7 -222 -8 -242 -25 -22 -18 -197 -60 -313
-75 -78 -9 -180 -13 -315 -11 -189 4 -202 5 -247 28 -26 14 -48 31 -48 38 0 6
-4 12 -8 12 -4 0 -7 -15 -7 -32 0 -18 -2 -49 -6 -68 -6 -35 -6 -35 -8 9 0 24
-3 42 -5 40 -3 -2 -12 -57 -21 -122 -20 -148 -38 -215 -76 -293 -41 -82 -81
-129 -143 -165 -48 -29 -41 -33 20 -14 24 7 34 -14 34 -72 0 -22 6 -36 21 -43
11 -6 24 -21 29 -33 7 -18 9 -19 9 -4 1 16 3 17 16 4 18 -18 21 -44 40 -267
17 -194 20 -204 113 -343 26 -39 61 -94 77 -122 15 -27 31 -52 34 -55 4 -3 14
-17 23 -32 13 -20 14 -28 5 -36 -15 -12 -88 -28 -192 -42 -100 -14 -125 -20
-125 -30 0 -16 40 -17 136 -4 55 7 151 20 215 28 111 15 207 21 198 12 -6 -7
-356 -66 -599 -101 -62 -10 -130 -29 -130 -37 0 -4 6 -5 14 -2 7 3 61 -2 119
-10 57 -9 109 -16 114 -16 6 0 13 -44 17 -97 15 -211 47 -577 52 -585 3 -4 16
-8 30 -8 29 0 29 -8 10 205 -27 306 -39 465 -35 469 2 3 58 -3 124 -13 117
-18 120 -18 138 0 16 17 75 26 125 20 7 -1 28 3 46 9 18 5 113 21 212 35 98
14 208 29 244 35 122 18 140 6 23 -16 -308 -57 -538 -105 -545 -112 -6 -6 22
-12 69 -17 124 -11 208 -30 205 -45 -2 -7 7 -168 19 -356 l23 -343 29 -7 c15
-3 31 -3 34 0 3 3 -5 163 -18 356 -13 194 -23 353 -22 354 1 1 66 -7 143 -18
129 -18 141 -18 153 -3 8 10 39 19 97 25 47 5 205 30 352 56 196 33 274 43
290 36 20 -9 21 -10 3 -8 -11 0 -27 -1 -35 -5 -8 -3 -44 -10 -80 -17 -36 -6
-92 -18 -125 -25 -33 -8 -109 -23 -170 -34 -127 -24 -226 -51 -220 -60 2 -4
16 -8 32 -9 15 -2 84 -11 153 -20 l125 -17 3 -90 c1 -50 9 -218 17 -375 15
-304 16 -309 68 -306 26 1 25 -44 1 435 -8 172 -13 315 -10 318 2 3 76 -6 163
-19 155 -25 165 -24 176 6 2 5 39 11 82 14 44 2 85 8 90 12 6 5 39 13 75 20
36 6 119 22 186 36 66 13 138 26 160 28 21 2 55 7 74 10 19 3 28 4 20 0 -8 -3
-35 -14 -60 -24 -44 -18 -154 -46 -295 -76 -186 -39 -275 -73 -192 -74 17 -1
98 -11 179 -23 l147 -22 5 -225 c3 -124 9 -305 12 -402 7 -164 9 -178 26 -178
10 0 18 -4 18 -9 0 -4 11 -6 25 -3 l25 4 -5 147 c-16 396 -23 646 -20 650 4 4
115 -11 268 -35 96 -16 99 -16 117 4 14 15 38 22 87 27 37 3 88 13 113 21 48
15 217 54 315 73 33 7 74 16 90 21 17 5 53 11 80 13 28 3 41 3 30 0 -11 -2
-29 -8 -40 -12 -33 -14 -99 -34 -120 -37 -11 -2 -40 -10 -65 -18 -289 -92
-370 -119 -367 -123 3 -2 51 -11 108 -19 57 -7 118 -16 134 -18 17 -3 59 -8
95 -12 36 -3 66 -7 68 -9 3 -2 10 -419 11 -667 1 -206 -5 -188 69 -203 l34 -7
-8 432 -7 431 24 -5 c38 -8 149 -25 209 -32 30 -3 88 -12 128 -19 72 -12 74
-12 96 10 18 18 40 25 92 30 38 4 81 14 96 21 24 12 169 55 308 91 30 8 62 17
70 20 8 3 22 7 30 9 8 2 48 12 88 23 40 10 74 15 77 11 4 -6 -30 -21 -44 -19
-2 0 -7 -3 -10 -8 -12 -16 -166 -71 -356 -128 -49 -14 -99 -30 -110 -35 -11
-5 -37 -14 -57 -20 -40 -12 -71 -39 -47 -41 31 -1 99 -10 189 -24 52 -8 115
-17 140 -20 25 -2 67 -7 93 -11 l48 -6 -5 -62 c-3 -33 -8 -240 -12 -458 l-6
-398 26 0 c22 0 26 -4 26 -30 0 -25 -4 -30 -24 -30 l-24 0 -6 -342 c-3 -189
-9 -517 -12 -729 l-6 -386 26 -7 c19 -5 26 -13 26 -30 0 -19 -4 -22 -24 -19
l-24 5 -7 -354 c-4 -194 -6 -383 -4 -421 3 -45 0 -67 -7 -67 -6 0 -65 18 -130
40 -66 22 -127 40 -136 40 -10 0 -18 4 -18 8 0 5 -35 19 -77 32 -43 13 -82 26
-88 30 -5 4 -28 11 -50 15 -22 5 -42 9 -45 10 -3 0 -15 6 -27 13 -13 7 -23 10
-23 6 0 -3 -6 -2 -12 3 -7 6 -44 20 -83 33 -38 12 -77 25 -85 28 -8 3 -55 19
-105 36 l-90 31 -6 320 c-4 176 -7 359 -8 406 -1 78 -3 87 -21 92 -12 3 -20
14 -20 27 0 17 4 20 20 15 20 -6 20 -2 20 262 0 147 -3 460 -7 696 -6 400 -7
427 -24 427 -10 0 -20 4 -23 9 -3 4 -17 6 -30 4 l-25 -5 5 -552 c2 -303 7
-611 10 -685 6 -120 8 -134 25 -138 12 -3 19 -14 19 -28 0 -18 -5 -21 -22 -18
l-23 4 6 -398 c3 -219 6 -399 5 -400 -1 -2 -210 69 -266 90 -8 3 -64 21 -125
41 -60 19 -182 61 -270 92 -88 31 -168 58 -177 61 -10 3 -19 10 -19 17 -1 6
-3 20 -4 31 -1 11 -5 144 -9 295 -3 151 -9 310 -12 352 -7 81 -9 85 -66 94
-21 4 -26 2 -22 -13 2 -10 8 -168 14 -351 6 -183 15 -343 20 -357 6 -16 5 -25
-3 -28 -12 -4 -273 81 -334 109 -17 8 -38 14 -46 14 -9 0 -18 4 -21 9 -3 4
-20 11 -38 15 -27 5 -318 104 -325 110 -1 1 -9 141 -18 311 -21 425 -19 411
-57 424 -17 6 -33 9 -36 7 -4 -5 14 -409 28 -596 4 -63 7 -116 6 -118 -2 -1
-57 16 -122 39 -65 22 -146 49 -179 59 -33 11 -125 42 -205 70 -80 28 -153 54
-162 57 -12 4 -18 16 -18 37 0 74 -43 652 -48 657 -4 4 -20 9 -36 13 l-29 7 7
-78 c3 -43 13 -177 21 -298 9 -121 18 -241 21 -268 4 -26 4 -47 1 -47 -3 0
-26 9 -52 20 -26 11 -56 20 -66 20 -23 0 -649 -250 -649 -259 0 -5 212 -89
575 -228 50 -19 117 -45 150 -58 68 -26 374 -143 695 -265 118 -44 224 -85
235 -90 11 -4 34 -13 50 -19 17 -5 64 -23 105 -39 127 -50 737 -282 1125 -429
154 -58 332 -126 395 -150 173 -66 251 -96 410 -156 223 -84 648 -246 715
-272 204 -77 1378 -518 1839 -689 247 -92 452 -164 456 -159 5 4 34 47 66 94
33 47 95 137 139 199 44 62 107 153 140 201 80 117 177 254 248 350 31 44 57
81 57 84 0 3 49 74 108 158 60 83 139 197 177 252 38 55 85 123 104 150 19 28
121 174 226 325 105 151 207 298 226 325 19 28 38 55 42 62 8 12 -484 138
-507 130 -7 -3 -69 -74 -137 -158 -69 -85 -210 -257 -313 -384 -103 -126 -210
-257 -236 -290 -103 -126 -344 -423 -399 -490 -44 -54 -74 -79 -128 -107 l-70
-38 -289 99 c-159 55 -328 113 -376 130 -49 17 -93 31 -98 31 -6 0 -27 7 -46
15 l-35 14 39 41 39 41 54 -20 c80 -29 705 -231 715 -231 4 0 4 4 -1 9 -8 8
-517 184 -680 235 -24 8 -39 18 -37 26 3 11 0 11 -13 0 -8 -7 -17 -11 -20 -9
-2 2 17 25 43 49 25 25 43 38 40 30 -4 -10 0 -16 11 -17 17 -2 257 -73 491
-147 80 -25 150 -46 157 -46 7 0 46 16 87 36 82 40 77 34 391 409 60 72 111
132 114 135 3 3 28 32 56 65 27 33 52 62 55 65 5 5 306 360 524 619 49 58 111
131 137 161 176 203 191 228 160 263 -6 6 -301 75 -461 107 l-45 9 -618 -621
c-340 -341 -620 -619 -622 -616 -3 3 2 126 10 274 8 148 17 314 21 369 3 55 7
110 10 123 5 27 -3 28 -36 2 l-25 -19 -21 -381 -21 -382 -303 -302 c-302 -302
-303 -303 -334 -293 -17 5 -39 14 -48 18 -10 5 -26 9 -37 9 -11 0 -21 3 -23 8
-1 4 -57 24 -123 45 -66 21 -128 43 -137 48 -10 5 -25 9 -33 9 -8 0 -23 5 -33
10 -17 10 -164 60 -412 141 -74 24 -138 48 -142 54 -4 5 -8 7 -8 3 0 -6 -75
18 -89 28 -5 4 -2 389 5 636 l7 217 -27 10 c-35 14 -38 56 -2 47 l23 -6 7 308
c3 169 9 501 12 739 l7 431 -24 4 c-18 2 -25 10 -27 32 -3 26 -1 28 21 24 24
-5 25 -3 31 70 3 41 6 206 6 367 0 161 3 333 6 383 6 85 8 90 28 87 12 -2 75
-11 141 -20 260 -36 329 -48 337 -59 5 -7 8 -5 8 5 0 9 8 23 18 31 23 19 116
41 141 33 12 -4 23 0 28 9 8 15 77 44 345 141 149 54 197 63 205 39 5 -14 -53
-41 -252 -119 -241 -93 -287 -113 -315 -135 -23 -18 -24 -20 -5 -21 11 -1 29
-3 40 -4 11 -2 43 -6 70 -10 28 -4 57 -7 65 -7 8 0 29 -4 45 -8 17 -5 61 -12
100 -15 38 -4 73 -9 76 -11 4 -2 37 -7 73 -10 62 -5 132 10 171 36 6 4 24 12
40 18 17 6 134 56 260 110 127 55 232 98 234 96 6 -5 -40 -797 -48 -839 l-9
-40 -1 50 c0 28 8 212 19 409 11 198 17 362 15 365 -3 2 -7 2 -10 -1 -3 -3
-15 -174 -26 -379 -12 -206 -25 -375 -30 -377 -5 -2 -9 -13 -10 -25 0 -12 -3
-16 -6 -9 -7 18 -23 15 -24 -5 0 -15 -2 -15 -9 2 -7 16 -9 14 -10 -15 l-1 -35
-14 25 -14 25 -1 -25 c-1 -23 -2 -23 -10 -5 -7 17 -9 16 -10 -10 -1 -29 -1
-29 -15 -11 -15 19 -15 19 -16 -5 l-1 -24 -8 25 c-7 22 -8 21 -11 -15 -1 -32
-3 -34 -6 -13 -5 34 -23 37 -24 6 -1 -22 -1 -22 -9 2 -7 23 -8 22 -10 -10 -1
-29 -3 -32 -10 -15 -7 17 -9 16 -9 -10 -1 -23 -4 -26 -11 -15 -7 12 -10 11
-17 -5 -6 -17 -9 -15 -14 15 -6 35 -6 35 -9 -10 -2 -42 -3 -43 -10 -15 l-8 30
-2 -35 c-1 -29 -3 -32 -10 -15 -7 17 -9 17 -9 3 -2 -34 -20 -18 -24 20 -3 34
-4 33 -7 -13 l-3 -50 -7 40 -7 40 -3 -55 c-2 -51 -3 -53 -10 -20 l-7 35 -3
-40 c-2 -35 -3 -37 -10 -15 l-8 25 -1 -26 c-1 -22 -5 -26 -26 -21 -16 3 -26 0
-27 -9 0 -8 -4 6 -8 31 l-7 45 -3 -55 -3 -55 -7 45 -7 45 -3 -50 -3 -50 -7 40
-7 40 -3 -50 -3 -50 -7 45 -7 45 -3 -55 -3 -55 -7 45 -7 45 -1 -53 c-1 -29 -7
-63 -13 -74 -8 -16 -8 -23 2 -30 25 -16 62 -1 195 79 72 43 209 125 306 182
l175 105 2 75 c1 42 10 233 21 425 22 385 25 516 11 516 -5 0 -7 -9 -4 -21 6
-20 4 -19 -19 3 -19 20 -44 28 -133 42 -96 15 -637 81 -1195 146 -96 11 -209
25 -250 30 -41 6 -253 31 -470 55 -217 25 -487 57 -600 70 -113 14 -302 36
-420 50 -118 13 -312 36 -430 50 -390 46 -633 74 -820 95 -102 12 -232 27
-290 35 -58 8 -150 19 -205 25 -55 6 -136 15 -180 20 -44 5 -125 14 -180 19
-55 6 -111 13 -125 16 -29 6 -307 38 -565 66 -199 21 -325 24 -325 9 0 -20
-26 -9 -27 11 -1 13 5 23 18 26 25 7 24 15 -6 63 -14 22 -25 44 -25 50 0 5 -3
10 -7 10 -5 0 -16 19 -27 43 -10 23 -22 50 -27 59 -14 27 -11 46 8 51 14 4 13
5 -4 6 -23 1 -25 6 -38 85 -6 38 -20 39 -27 2 -1 -11 -10 -21 -18 -23 -13 -4
-13 -3 0 6 12 9 10 11 -12 11 -23 0 -29 6 -37 38 -12 40 -14 173 -5 210 4 14
12 21 20 18 7 -3 15 0 17 7 8 22 17 1 26 -59 l9 -59 3 65 c1 36 4 76 5 90 1
14 2 44 3 68 1 31 5 42 17 42 9 0 28 9 42 21 l27 21 7 -89 c4 -48 12 -146 18
-218 5 -71 10 -158 10 -192 0 -46 4 -63 13 -63 9 0 28 -42 50 -107 33 -99 35
-109 20 -120 -27 -21 -11 -23 72 -9 44 8 71 14 60 15 -15 1 -25 13 -34 39 -26
72 -78 182 -83 177 -3 -3 -3 5 -1 17 2 13 -5 140 -16 283 -11 143 -23 306 -27
363 l-7 102 72 0 c39 0 87 -6 105 -14 18 -8 45 -12 60 -9 23 5 26 2 26 -23 0
-67 21 -302 30 -335 6 -20 27 -55 48 -78 33 -38 43 -43 102 -51 36 -5 85 -10
109 -10 25 0 52 -6 60 -14 19 -16 204 -29 218 -15 11 11 133 0 133 -12 0 -4
-15 -10 -33 -14 -52 -10 -77 -26 -77 -51 0 -26 -13 -30 -133 -40 -43 -3 -75
-10 -70 -14 4 -4 85 -13 178 -19 94 -7 238 -18 320 -26 123 -12 417 -37 930
-80 33 -2 139 -11 235 -20 96 -8 258 -22 360 -30 102 -9 289 -25 415 -36 222
-19 310 -26 590 -49 72 -5 315 -26 540 -45 1599 -136 1400 -128 1655 -60 74
20 158 42 185 50 28 7 244 63 480 125 237 61 455 119 485 128 l55 17 -45 2
c-105 6 -170 15 -165 23 12 20 -7 40 -33 33 -16 -4 -23 -2 -19 4 8 12 -14 23
-44 23 -16 0 -19 7 -19 47 0 55 -9 53 -13 -3 -3 -51 -16 -64 -69 -65 -24 0
-59 -7 -78 -14 l-35 -13 58 -1 c32 -1 57 3 57 9 0 6 7 10 16 10 8 0 12 -4 9
-10 -4 -6 10 -10 34 -10 28 0 40 4 38 13 -1 6 5 12 13 12 8 0 14 -5 13 -10 -1
-7 12 -9 33 -7 37 5 42 -1 20 -24 -8 -7 -16 -19 -18 -26 -6 -17 -188 -25 -188
-8 0 6 -5 8 -10 5 -13 -8 -90 35 -90 51 0 7 6 15 13 17 6 3 3 6 -8 6 -19 1
-20 8 -20 144 0 114 4 148 17 173 23 42 74 84 110 91 49 10 11 23 -66 23 -58
0 -73 4 -97 24 -35 29 -26 38 34 33 l44 -4 2 56 c1 44 7 60 23 72 20 16 21 20
9 58 -7 24 -18 41 -26 41 -15 0 -18 -18 -19 -118 -1 -30 -7 -48 -19 -57 -18
-13 -18 -13 0 -18 10 -3 -2 -5 -25 -4 -32 1 -46 -3 -53 -16 -10 -17 -29 -15
-29 3 0 9 39 25 53 22 4 -1 7 2 7 8 0 5 6 10 13 10 8 0 12 20 12 70 -1 91 26
153 69 158 16 2 32 -2 37 -10 7 -10 9 -10 9 0 0 6 10 12 23 12 49 0 66 11 69
44 3 30 4 31 67 38 35 4 65 9 67 11 2 2 -24 15 -59 29 -45 19 -62 31 -62 44 0
16 9 20 55 22 30 2 59 7 63 11 5 5 -19 18 -53 31 -51 19 -61 26 -58 44 3 18
11 21 66 24 34 2 62 6 62 10 0 4 -28 18 -62 32 -34 14 -63 31 -66 37 -5 17 40
33 94 33 58 0 50 12 -26 40 -43 16 -60 28 -60 40 0 15 12 20 65 25 36 4 65 10
65 14 0 3 -27 17 -60 29 -43 17 -60 29 -60 42 0 14 12 19 66 25 73 8 73 14 -1
43 -35 14 -51 26 -53 41 -3 18 2 21 35 22 21 1 52 5 68 9 l30 7 -25 10 c-14 6
-44 19 -68 28 -48 20 -54 48 -12 53 80 8 110 14 106 21 -3 5 -33 18 -66 30
-45 17 -60 27 -60 42 0 15 7 19 34 19 43 0 96 11 96 19 0 4 -26 16 -57 28 -44
15 -59 25 -61 42 -3 17 2 21 25 21 46 0 103 12 103 21 0 5 -4 9 -10 9 -5 0
-34 11 -65 24 -70 31 -66 51 12 59 31 3 60 10 65 15 5 5 -18 19 -54 33 -73 29
-91 59 -36 59 41 0 112 19 103 28 -3 4 -32 16 -63 28 -79 29 -80 50 -4 59 60
7 91 18 75 28 -5 3 -35 15 -66 27 -33 12 -57 28 -57 36 0 8 7 14 15 14 35 0
116 23 113 32 -2 6 -31 21 -63 33 -59 22 -60 23 -60 61 0 37 -2 39 -34 42 -33
3 -33 4 -27 45 3 23 7 96 10 162 6 153 -10 92 -21 -80 l-8 -120 -85 -2 c-162
-3 -180 -10 -180 -71 0 -24 -7 -30 -65 -51 -37 -13 -64 -28 -62 -35 2 -6 31
-15 65 -21 74 -12 71 -23 -11 -57 -33 -12 -60 -27 -60 -33 -1 -5 26 -14 61
-19 37 -5 62 -14 62 -21 0 -6 -32 -24 -70 -39 -39 -15 -68 -31 -65 -36 3 -4
32 -11 66 -15 78 -9 76 -28 -8 -62 -35 -14 -63 -29 -63 -33 0 -4 29 -11 65
-15 36 -3 65 -10 65 -13 -1 -17 -19 -29 -77 -52 -34 -13 -60 -27 -58 -31 3 -3
32 -9 65 -13 81 -9 78 -31 -8 -64 -70 -27 -79 -42 -24 -42 103 -1 112 -35 17
-68 -36 -13 -65 -28 -65 -32 0 -5 28 -10 63 -12 53 -3 62 -6 62 -22 0 -15 -16
-25 -68 -44 -77 -28 -74 -42 11 -42 49 0 53 -2 50 -21 -2 -16 -20 -28 -66 -47
-72 -28 -68 -42 11 -42 44 0 48 -2 45 -22 -2 -18 -16 -28 -60 -43 -31 -11 -59
-23 -63 -27 -4 -3 23 -9 59 -13 54 -6 66 -11 66 -25 0 -13 -18 -25 -65 -42
-70 -25 -82 -38 -36 -38 110 0 123 -37 26 -72 -36 -12 -65 -26 -65 -30 0 -5
27 -8 59 -8 98 0 94 -34 -6 -70 -74 -26 -68 -38 20 -39 39 -1 47 -4 47 -20 0
-13 -16 -25 -57 -41 -32 -13 -62 -26 -66 -30 -5 -5 19 -11 52 -15 l61 -7 0
-34 c0 -31 2 -34 31 -34 39 0 69 -16 69 -38 0 -10 -21 -41 -46 -70 -33 -38
-48 -64 -51 -90 -2 -20 -6 -39 -9 -41 -3 -3 -40 -7 -82 -9 -94 -4 -122 -16
-122 -53 0 -29 19 -39 79 -39 l34 0 -7 -162 c-4 -90 -9 -180 -12 -200 -5 -35
-8 -37 -51 -44 -25 -4 -54 -15 -64 -25 -18 -18 -28 -18 -256 -4 -131 8 -241
15 -245 15 -3 0 -10 -39 -14 -87 -10 -107 -8 -96 -17 -110 -4 -6 -2 -13 4 -15
8 -3 6 -9 -5 -20 -9 -9 -16 -21 -16 -26 0 -15 -29 -23 -90 -27 -136 -8 -187
-35 -63 -34 43 0 72 3 65 6 -16 6 -6 23 15 23 9 0 13 -6 9 -15 -5 -14 4 -15
72 -9 42 3 96 10 120 14 53 9 54 -2 2 -52 -31 -29 -49 -38 -78 -39 -20 -1 -50
-3 -67 -5 -25 -3 -169 11 -323 32 -19 3 -46 12 -60 22 -14 9 -23 11 -19 5 5
-8 3 -13 -7 -13 -8 0 -16 5 -18 12 -3 7 -24 12 -51 12 -26 1 -47 4 -47 9 0 4
69 5 153 2 99 -3 145 -2 132 4 -19 9 -19 10 2 10 12 1 25 6 28 11 4 6 -13 10
-44 10 -46 0 -51 2 -65 32 -22 43 -20 78 7 118 34 51 56 151 38 174 -5 6 -12
25 -15 41 -5 25 -2 35 16 51 49 44 125 89 158 94 20 4 -19 9 -95 13 -71 4
-167 10 -212 13 l-83 6 0 -63 c0 -35 -3 -86 -6 -114 l-6 -50 -112 7 c-61 3
-132 7 -158 7 -41 1 -48 4 -48 21 0 23 -32 45 -78 55 l-34 7 7 179 8 179 -79
0 c-48 0 -74 4 -65 9 10 6 6 11 -15 19 l-29 10 37 1 c20 1 38 5 40 11 2 6 17
5 41 -2 30 -9 40 -9 46 1 5 8 18 10 35 5 21 -5 26 -11 23 -26 -6 -23 13 -33
48 -24 18 5 25 13 25 31 0 25 -9 29 -55 26 -17 -2 -17 0 -5 8 11 8 3 11 -35
12 -27 0 -75 1 -106 2 -42 2 -55 -1 -52 -10 3 -8 -4 -13 -18 -13 -13 0 -35 -3
-49 -5 -14 -3 -19 -3 -12 1 17 8 15 33 -3 40 -23 9 -18 104 5 104 4 0 5 -11 2
-25 -4 -22 -1 -25 28 -25 25 0 30 3 26 18 -2 9 -7 32 -11 50 -7 35 -35 45 -35
12 0 -12 -7 -20 -17 -20 -10 0 -14 4 -8 8 6 4 11 14 13 22 5 23 33 50 51 50
12 0 18 -10 19 -32 4 -47 12 -48 12 0 0 40 1 41 38 44 34 3 37 6 40 36 3 31 4
32 52 32 67 0 71 15 9 37 -82 29 -80 54 4 63 l52 6 -57 26 c-69 32 -78 58 -20
59 20 0 46 4 56 8 15 6 10 11 -33 29 -37 16 -51 28 -51 42 0 17 7 20 50 20 28
0 50 4 50 9 0 4 -22 18 -50 29 -27 12 -50 27 -50 35 0 15 40 27 87 27 35 0 22
12 -36 35 -64 25 -72 55 -13 56 20 0 46 4 57 8 18 7 16 10 -16 23 -20 9 -46
19 -58 23 -13 4 -21 13 -19 23 2 13 16 18 56 20 28 2 52 7 52 11 0 5 -25 19
-55 31 -30 12 -55 28 -55 35 0 13 43 25 86 25 40 0 27 18 -26 37 -60 21 -71
52 -17 54 17 1 43 4 57 9 24 7 23 8 -20 28 -25 12 -51 22 -57 22 -7 0 -13 9
-13 20 0 16 7 20 38 21 20 0 46 4 57 9 18 7 14 10 -25 29 -25 11 -51 21 -58
21 -24 0 -8 35 18 38 14 1 41 5 60 8 l35 6 -62 29 c-35 15 -63 33 -63 38 0 6
17 13 38 16 99 16 100 18 20 50 -29 11 -53 26 -55 32 -2 6 20 14 54 19 32 5
58 13 58 18 0 5 -24 18 -52 29 -29 11 -53 25 -53 32 0 7 22 16 50 21 28 5 52
14 53 19 1 6 -22 18 -50 29 -48 17 -52 21 -55 55 -3 31 -7 36 -32 39 -28 4
-28 4 -22 60 8 80 10 518 2 531 -4 6 -13 11 -19 10 -9 0 -9 -2 1 -6z m-3383
-2090 c4 -10 9 -32 12 -49 2 -17 8 -53 12 -80 l9 -49 1 58 c0 31 5 57 10 57 5
0 28 -21 50 -47 32 -37 41 -56 41 -84 0 -36 -22 -60 -35 -39 -4 7 -13 6 -25 0
-25 -13 -28 -13 -32 6 -3 14 -7 13 -30 -5 -14 -12 -40 -21 -58 -21 -27 0 -30
3 -25 20 4 11 2 20 -4 20 -6 0 -11 -3 -11 -7 0 -5 -3 -18 -6 -30 -6 -21 -3
-23 40 -23 25 0 46 5 46 10 0 6 7 10 15 10 8 0 15 -4 15 -10 0 -15 87 -12 93
3 3 9 9 9 26 -1 22 -13 71 -7 71 9 0 5 5 9 10 9 24 0 7 -19 -32 -34 -33 -14
-43 -15 -49 -4 -7 11 -9 11 -9 0 0 -8 -5 -10 -12 -6 -7 5 -9 2 -5 -9 8 -22
-63 -30 -256 -25 l-157 3 0 -35 c1 -66 29 -192 47 -212 18 -21 18 -21 -35 -15
-29 3 -62 13 -74 21 -12 9 -32 13 -48 9 -22 -4 -28 -1 -33 18 -8 32 1 38 61
46 72 8 69 29 -5 36 -85 8 -191 3 -204 -10 -19 -19 1 -34 40 -33 58 3 61 2 61
-30 0 -28 -1 -29 -25 -18 -19 8 -29 8 -47 -4 -31 -20 -190 -10 -213 13 -24 24
-33 74 -41 234 l-7 142 47 7 c25 4 49 13 53 20 12 20 281 28 331 10 20 -7 47
-10 60 -7 21 5 22 2 22 -56 0 -48 3 -61 15 -61 8 0 15 -7 15 -15 0 -8 7 -15
16 -15 8 0 12 5 9 10 -4 6 5 10 19 10 14 0 26 -4 26 -10 0 -5 19 -10 43 -10
31 0 38 3 27 10 -13 8 -12 10 3 10 9 0 17 4 17 9 0 4 -11 6 -25 3 -14 -2 -25
0 -25 5 0 5 -10 9 -22 9 -21 -1 -23 4 -26 52 -3 51 -2 52 25 53 15 1 33 1 38
0 6 0 19 13 30 29 11 17 23 30 28 30 4 0 7 18 7 40 0 40 0 40 39 40 28 0 41
-5 46 -17z m1562 -45 c-3 -7 -5 -2 -5 12 0 14 2 19 5 13 2 -7 2 -19 0 -25z
m1674 -144 c6 -8 5 -14 -6 -18 -9 -3 -15 0 -15 9 0 12 -5 12 -25 3 -14 -6 -25
-17 -25 -25 0 -7 -3 -13 -8 -13 -4 0 -5 24 -2 53 3 37 14 65 35 94 l30 42 3
-67 c2 -36 7 -71 13 -78z m2081 23 c-4 -61 -8 -80 -21 -84 -9 -2 -24 -9 -33
-14 -27 -14 -28 -12 -28 29 0 29 10 53 41 96 23 32 42 56 44 54 1 -2 0 -38 -3
-81z m-3772 -7 c0 -5 -5 -10 -11 -10 -5 0 -7 5 -4 10 3 6 8 10 11 10 2 0 4 -4
4 -10z m134 -10 c29 0 12 -12 -22 -14 -24 -2 -28 1 -24 17 3 13 8 15 15 8 6
-6 20 -11 31 -11z m-234 -104 c0 -3 -4 -8 -10 -11 -5 -3 -10 -1 -10 4 0 6 5
11 10 11 6 0 10 -2 10 -4z m3727 -2 c-3 -3 -12 -4 -19 -1 -8 3 -5 6 6 6 11 1
17 -2 13 -5z m-3757 -8 c0 -2 -7 -6 -15 -10 -8 -3 -15 -1 -15 4 0 6 7 10 15
10 8 0 15 -2 15 -4z m-10 -166 c0 -83 -1 -90 -20 -90 -19 0 -20 7 -20 90 0 83
1 90 20 90 19 0 20 -7 20 -90z m-1381 19 c21 -23 33 -96 30 -186 -1 -32 3 -68
9 -79 10 -19 8 -20 -30 -23 -23 -1 -45 -4 -50 -7 -4 -3 -20 2 -35 10 -16 8
-22 15 -15 16 20 0 14 28 -8 35 -18 6 -24 17 -21 38 0 4 -5 7 -11 7 -8 1 -6 6
5 14 18 14 41 76 28 76 -4 0 -8 7 -8 15 0 8 4 12 9 9 4 -3 8 5 8 17 0 22 45
79 61 79 5 0 17 -9 28 -21z m1142 -40 c32 -16 40 -56 40 -178 -1 -69 4 -119
10 -127 8 -10 8 -15 -2 -17 -8 -2 -27 -8 -44 -14 -31 -10 -89 0 -100 17 -3 6
2 7 12 4 17 -5 17 -5 1 9 -10 8 -18 19 -18 26 0 6 -6 20 -12 31 -10 15 -10 22
-2 28 16 9 36 86 33 126 -2 38 9 66 36 88 24 21 22 20 46 7z m-1401 -39 c0 -5
-2 -10 -4 -10 -3 0 -8 5 -11 10 -3 6 -1 10 4 10 6 0 11 -4 11 -10z m2826 -8
c37 -24 52 -139 36 -267 -8 -60 -8 -82 1 -87 9 -6 8 -8 -2 -8 -11 0 -10 -4 4
-13 16 -12 12 -15 -41 -20 -61 -6 -128 7 -152 30 -7 7 -9 13 -3 13 5 0 13 -4
16 -10 3 -5 11 -10 17 -10 6 0 4 8 -5 18 -23 25 -21 84 2 114 11 13 19 35 20
48 1 29 1 65 1 99 0 15 15 37 42 62 46 42 47 42 64 31z m-1991 -55 c27 -24 45
-87 26 -87 -6 0 -14 8 -18 18 -3 9 -19 34 -36 55 -22 29 -25 37 -12 37 9 0 27
-10 40 -23z m305 -7 c0 -5 -4 -10 -10 -10 -5 0 -10 5 -10 10 0 6 5 10 10 10 6
0 10 -4 10 -10z m-377 -49 c21 -8 44 -38 35 -46 -2 -2 -27 -6 -55 -10 l-53 -7
0 36 c0 31 3 36 24 36 14 0 36 -4 49 -9z m2177 -31 c0 -22 -4 -40 -10 -40 -5
0 -10 18 -10 40 0 22 5 40 10 40 6 0 10 -18 10 -40z m717 15 c0 -17 0 -17 -22
-9 -13 5 -14 8 -3 15 19 12 25 11 25 -6z m-73 -4 c3 -5 -5 -11 -19 -13 -20 -4
-23 -3 -14 8 13 16 25 18 33 5z m-1039 -10 c3 -5 1 -12 -5 -16 -5 -3 -10 1
-10 9 0 18 6 21 15 7z m1180 -21 c3 -5 1 -10 -4 -10 -6 0 -11 5 -11 10 0 6 2
10 4 10 3 0 8 -4 11 -10z m-3625 -11 c0 -6 -24 -19 -36 -19 -2 0 -4 6 -4 14 0
9 9 14 20 13 11 -1 20 -4 20 -8z m-64 -44 c-5 -13 11 -15 102 -15 69 0 112 4
120 12 8 8 15 8 26 -1 8 -7 25 -9 42 -5 19 5 25 4 20 -5 -4 -6 -18 -11 -32
-11 -13 0 -24 -3 -24 -8 0 -4 -22 -7 -50 -7 -27 0 -50 4 -50 8 0 5 -6 5 -12 0
-20 -12 -108 -11 -100 1 3 6 -1 5 -10 -2 -11 -9 -18 -10 -23 -2 -3 5 -11 10
-16 10 -6 0 -7 -4 -4 -10 8 -14 -58 0 -67 14 -5 7 6 12 32 14 22 2 40 7 40 13
0 5 3 9 6 9 3 0 4 -7 0 -15z m121 -1 c-3 -3 -12 -4 -19 -1 -8 3 -5 6 6 6 11 1
17 -2 13 -5z m4093 -34 c0 -5 -4 -10 -10 -10 -5 0 -10 5 -10 10 0 6 5 10 10
10 6 0 10 -4 10 -10z m-2733 -26 c-3 -3 -12 -4 -19 -1 -8 3 -5 6 6 6 11 1 17
-2 13 -5z m3970 0 c-3 -3 -12 -4 -19 -1 -8 3 -5 6 6 6 11 1 17 -2 13 -5z
m-4304 -21 c-7 -2 -21 -2 -30 0 -10 3 -4 5 12 5 17 0 24 -2 18 -5z m384 1 c-3
-3 -12 -4 -19 -1 -8 3 -5 6 6 6 11 1 17 -2 13 -5z m-257 -14 c0 -14 97 -13
102 2 3 7 11 9 24 3 10 -4 33 -7 49 -7 l30 2 -25 -11 c-14 -6 -29 -12 -35 -13
-5 -1 -16 -5 -24 -10 -18 -11 -198 -8 -220 3 -9 5 -33 8 -54 7 -20 -2 -37 1
-37 5 0 4 -10 10 -22 12 -13 3 29 3 92 1 80 -3 110 -2 100 5 -13 9 -13 11 3
11 9 0 17 -4 17 -10z m-2477 -27 c-7 -2 -21 -2 -30 0 -10 3 -4 5 12 5 17 0 24
-2 18 -5z m4105 -30 c-4 -22 -45 -30 -45 -9 0 8 6 12 14 9 7 -3 13 0 13 6 0 6
5 11 11 11 6 0 9 -8 7 -17z m-3843 -22 c-6 -5 -25 10 -25 20 0 5 6 4 14 -3 8
-7 12 -15 11 -17z m-167 -23 c7 -7 12 -22 12 -35 0 -13 4 -23 10 -23 15 0 31
-37 24 -55 -5 -12 -14 -3 -36 35 -16 29 -27 58 -24 65 3 8 0 16 -7 19 -7 2 -7
5 -1 5 5 1 15 -4 22 -11z m177 2 c-3 -5 -12 -10 -18 -10 -7 0 -6 4 3 10 19 12
23 12 15 0z m3478 3 c-7 -2 -21 -2 -30 0 -10 3 -4 5 12 5 17 0 24 -2 18 -5z
m287 -3 c0 -5 -5 -10 -11 -10 -5 0 -7 5 -4 10 3 6 8 10 11 10 2 0 4 -4 4 -10z
m-143 -6 c-3 -3 -12 -4 -19 -1 -8 3 -5 6 6 6 11 1 17 -2 13 -5z m186 -16 c-2
-5 -13 -8 -24 -8 -10 0 -19 -4 -19 -8 0 -5 -43 -12 -95 -15 -95 -6 -199 5
-223 25 -6 6 -26 8 -43 4 -16 -3 -28 -2 -25 2 3 4 101 8 219 7 118 0 213 -3
210 -7z m90 5 c-7 -2 -21 -2 -30 0 -10 3 -4 5 12 5 17 0 24 -2 18 -5z m1727
-47 c0 -3 -4 -8 -10 -11 -5 -3 -10 -1 -10 4 0 6 5 11 10 11 6 0 10 -2 10 -4z
m80 -46 c0 -5 -6 -10 -14 -10 -8 0 -18 5 -21 10 -3 6 3 10 14 10 12 0 21 -4
21 -10z m-70 -10 c0 -5 -9 -10 -21 -10 -11 0 -17 5 -14 10 3 6 13 10 21 10 8
0 14 -4 14 -10z m-462 -7 c-10 -2 -28 -2 -40 0 -13 2 -5 4 17 4 22 1 32 -1 23
-4z m-5238 -153 c0 -5 -2 -10 -4 -10 -3 0 -8 5 -11 10 -3 6 -1 10 4 10 6 0 11
-4 11 -10z m1540 -240 c0 -5 -8 -10 -17 -10 -15 0 -16 2 -3 10 19 12 20 12 20
0z m3433 -617 c-7 -2 -21 -2 -30 0 -10 3 -4 5 12 5 17 0 24 -2 18 -5z m2567
-2263 c-20 -13 -33 -13 -25 0 3 6 14 10 23 10 15 0 15 -2 2 -10z m-274 -315
c-11 -8 -22 -12 -25 -9 -6 6 19 24 34 24 6 -1 1 -7 -9 -15z m-5824 -91 c-2
-19 1 -48 7 -66 l11 -33 -25 28 c-32 36 -33 104 -2 104 8 0 11 -12 9 -33z
m5513 -264 c-3 -5 -14 -10 -23 -10 -15 0 -15 2 -2 10 20 13 33 13 25 0z m-355
-414 c0 -2 -11 -6 -25 -8 -13 -3 -22 -1 -19 3 5 9 44 13 44 5z m-3054 -109 l1
-70 -24 27 c-23 27 -34 104 -13 91 6 -3 10 0 10 8 0 7 6 14 13 14 8 0 12 -21
13 -70z"/>
<path d="M2566 7269 c-10 -50 -7 -69 9 -69 21 0 28 23 21 65 -8 43 -21 45 -30
4z"/>
<path d="M2267 7088 c-11 -34 21 -65 38 -38 3 6 2 10 -4 10 -6 0 -8 7 -5 15 4
8 10 12 15 9 5 -3 9 0 9 5 0 15 -47 14 -53 -1z"/>
<path d="M8062 9418 c-17 -17 -15 -55 4 -62 26 -10 34 -7 43 17 16 41 -18 74
-47 45z m38 -27 c0 -6 -4 -13 -10 -16 -5 -3 -10 1 -10 9 0 9 5 16 10 16 6 0
10 -4 10 -9z"/>
<path d="M5861 9346 c-14 -16 -5 -42 17 -51 23 -9 44 22 31 46 -12 22 -32 24
-48 5z m34 -15 c3 -5 1 -12 -5 -16 -5 -3 -10 1 -10 9 0 18 6 21 15 7z"/>
<path d="M8043 9332 c-25 -2 -33 -8 -33 -22 0 -17 4 -18 26 -10 14 6 43 10 64
10 29 0 38 4 34 14 -5 13 -24 14 -91 8z"/>
<path d="M4120 9270 c-13 -8 -13 -10 2 -10 9 0 20 5 23 10 8 13 -5 13 -25 0z"/>
<path d="M4185 9270 c3 -5 14 -10 23 -10 15 0 15 2 2 10 -20 13 -33 13 -25 0z"/>
<path d="M5862 9218 c-19 -19 -14 -46 9 -53 27 -9 42 6 37 36 -3 27 -27 36
-46 17z m32 -23 c-4 -8 -8 -15 -10 -15 -2 0 -4 7 -4 15 0 8 4 15 10 15 5 0 7
-7 4 -15z"/>
<path d="M4080 9207 c0 -11 11 -12 57 -5 77 12 79 18 5 18 -45 0 -62 -4 -62
-13z"/>
<path d="M4102 9181 c-21 -13 -10 -46 16 -49 23 -3 28 11 16 42 -7 18 -13 19
-32 7z"/>
<path d="M5845 9139 c-12 -19 3 -21 77 -13 60 6 67 9 43 15 -48 11 -113 10
-120 -2z"/>
<path d="M4094 9056 c-9 -24 3 -46 26 -46 17 0 21 5 18 27 -3 31 -34 44 -44
19z"/>
<path d="M4086 8984 c-4 -11 1 -14 22 -10 15 2 47 5 71 5 62 1 45 12 -27 16
-47 3 -62 1 -66 -11z"/>
<path d="M1895 8416 c-5 -2 -22 -7 -37 -10 -34 -8 -38 -40 -8 -56 17 -9 20
-21 20 -90 0 -64 3 -80 15 -81 16 -2 41 -4 125 -12 172 -17 650 -30 610 -17
-14 4 -149 13 -300 20 -151 7 -276 13 -277 14 -1 0 -3 35 -4 76 -2 49 2 75 9
78 19 6 14 50 -8 62 -20 11 -128 22 -145 16z m98 -89 c8 8 20 -44 21 -92 1
-39 0 -40 -35 -43 -43 -4 -58 20 -55 87 3 46 20 65 47 51 9 -5 19 -7 22 -3z"/>
<path d="M673 8307 c-2 -29 -1 -30 12 -14 7 11 11 25 8 33 -9 24 -18 16 -20
-19z"/>
<path d="M787 8292 c-3 -15 -4 -29 -2 -31 8 -8 25 12 25 29 0 30 -17 32 -23 2z"/>
<path d="M565 8280 c0 -17 5 -30 13 -30 13 0 16 19 6 44 -10 25 -19 19 -19
-14z"/>
<path d="M6812 8220 c-53 -38 -62 -56 -62 -128 0 -32 -3 -93 -6 -135 -6 -67
-9 -76 -28 -79 -19 -3 -22 -11 -26 -78 -6 -85 -12 -100 -43 -100 -14 -1 -33
-16 -52 -43 -40 -56 -40 -55 -13 -59 34 -5 36 -50 4 -89 -32 -37 -32 -47 -3
-51 35 -5 34 -49 -2 -91 -36 -40 -38 -47 -12 -47 10 0 24 -7 31 -14 7 -9 40
-18 81 -22 l69 -7 0 -43 c0 -38 -7 -51 -60 -115 -53 -63 -60 -76 -60 -115 l0
-44 -89 0 c-96 0 -151 -19 -151 -52 0 -9 -3 -23 -6 -31 -4 -11 5 -19 33 -26
50 -14 104 -15 83 -1 -10 6 -11 10 -2 10 6 0 12 8 11 18 0 10 -3 12 -6 5 -7
-19 -19 -16 -19 5 0 16 9 18 91 15 60 -2 82 0 65 6 l-25 9 28 1 c16 1 26 5 22
10 -3 5 -18 8 -33 5 -19 -3 -23 -2 -12 5 8 5 18 7 22 5 4 -3 8 17 8 44 0 44 6
58 55 125 36 49 55 85 55 104 0 47 13 57 84 61 l65 4 4 -58 3 -59 2 56 2 56
56 6 c30 3 62 11 69 17 8 6 26 15 41 19 l26 7 -24 29 c-14 17 -28 38 -31 48
-9 25 9 57 33 57 26 0 25 5 -5 44 -14 18 -25 45 -25 60 0 21 6 28 30 33 34 6
37 15 14 34 -8 7 -22 25 -30 41 -8 16 -23 28 -34 28 -28 0 -30 9 -31 109 0 62
-4 91 -12 91 -9 0 -9 2 0 8 16 10 28 99 15 115 -13 15 -18 149 -7 166 4 7 -2
23 -16 37 -19 20 -32 24 -79 24 -47 0 -64 -5 -98 -30z m118 -106 c0 -32 -18
-66 -31 -59 -10 7 -12 68 -2 78 15 16 33 5 33 -19z m77 -146 c-3 -7 -5 -2 -5
12 0 14 2 19 5 13 2 -7 2 -19 0 -25z m-10 -40 c-3 -8 -6 -5 -6 6 -1 11 2 17 5
13 3 -3 4 -12 1 -19z m-53 -102 c-9 -53 -18 -71 -41 -71 -22 0 -31 19 -32 68
-1 30 3 39 21 46 12 4 30 6 40 3 15 -4 17 -11 12 -46z m56 44 c0 -5 -5 -10
-11 -10 -5 0 -7 5 -4 10 3 6 8 10 11 10 2 0 4 -4 4 -10z m-523 -936 c-3 -3
-12 -4 -19 -1 -8 3 -5 6 6 6 11 1 17 -2 13 -5z m93 -14 c0 -6 -13 -8 -32 -5
-46 8 -48 15 -5 15 21 0 37 -5 37 -10z"/>
<path d="M893 8202 c-2 -34 -1 -36 13 -18 17 24 18 31 2 44 -10 8 -13 2 -15
-26z"/>
<path d="M990 8226 c0 -2 8 -10 17 -17 11 -9 14 -10 9 -2 -5 9 1 11 21 8 47
-8 284 -12 276 -5 -8 7 -323 23 -323 16z"/>
<path d="M480 8191 c0 -17 5 -31 10 -31 6 0 10 11 10 24 0 14 -4 28 -10 31 -6
4 -10 -7 -10 -24z"/>
<path d="M1413 8203 c26 -2 67 -2 90 0 23 2 2 3 -48 3 -49 0 -68 -1 -42 -3z"/>
<path d="M1640 8189 c174 -15 220 -18 220 -10 0 10 -130 21 -229 20 l-76 -2
85 -8z"/>
<path d="M5122 8183 c-65 -32 -72 -51 -72 -194 l0 -129 -30 0 -29 0 -3 -77
c-3 -71 -5 -78 -24 -81 -12 -2 -35 -23 -53 -46 l-31 -44 25 -6 c34 -9 33 -48
-1 -89 l-27 -32 24 -5 c34 -8 37 -49 5 -87 -25 -30 -25 -43 1 -43 8 0 21 -7
29 -15 10 -10 35 -15 70 -15 l54 0 1 -47 2 -48 6 40 c6 38 8 40 48 46 72 9 83
0 84 -78 1 -63 2 -65 10 -28 4 22 8 57 8 78 l1 37 49 0 c28 0 53 5 56 11 4 5
18 14 31 19 l24 9 -26 38 c-30 44 -28 77 4 81 28 4 28 7 -3 44 -32 38 -32 65
0 80 14 6 24 14 23 17 -17 35 -57 81 -73 83 -19 3 -20 9 -17 194 4 206 -4 263
-41 289 -28 19 -83 19 -125 -2z m81 -134 c-3 -10 -9 -16 -14 -13 -11 6 -12 38
-2 47 10 11 21 -13 16 -34z"/>
<path d="M3699 8135 c-53 -28 -62 -57 -58 -179 l4 -111 -32 -3 -33 -3 0 -70
c0 -61 -2 -69 -19 -69 -16 0 -48 -39 -69 -82 -2 -3 7 -8 20 -10 28 -4 28 -39
-2 -80 l-19 -26 24 -6 c31 -8 33 -37 3 -76 -12 -16 -20 -31 -17 -32 45 -28 75
-38 113 -38 l46 0 0 -43 c0 -24 -6 -49 -12 -57 -11 -12 -10 -12 5 -1 11 9 17
27 17 51 0 35 2 38 33 43 17 2 42 1 55 -4 18 -7 22 -16 23 -59 1 -27 3 -54 4
-60 1 -5 4 -18 5 -27 1 -10 6 7 11 37 4 30 6 70 2 88 -5 32 -5 32 37 32 23 0
56 8 73 18 18 9 34 18 36 19 2 1 -6 15 -18 31 -27 38 -27 69 -1 77 19 6 28 25
12 25 -9 0 -42 54 -42 69 0 6 11 16 26 21 l25 10 -32 40 c-18 22 -38 40 -46
40 -7 0 -13 1 -14 3 0 1 -4 93 -8 204 -5 178 -8 204 -25 222 -23 25 -87 28
-127 6z m78 -117 c-3 -8 -6 -5 -6 6 -1 11 2 17 5 13 3 -3 4 -12 1 -19z"/>
<path d="M7011 8124 c0 -11 3 -14 6 -6 3 7 2 16 -1 19 -3 4 -6 -2 -5 -13z"/>
<path d="M988 8078 c-2 -21 0 -38 4 -38 15 0 21 30 11 53 -9 20 -11 19 -15
-15z"/>
<path d="M414 8055 c0 -27 3 -32 13 -23 7 6 13 16 13 23 0 7 -6 17 -13 23 -10
9 -13 4 -13 -23z"/>
<path d="M1053 7905 c-1 -36 10 -47 21 -19 5 13 -8 54 -17 54 -2 0 -3 -16 -4
-35z"/>
<path d="M383 7890 c0 -16 4 -30 9 -30 4 0 8 14 8 30 0 17 -4 30 -8 30 -5 0
-9 -13 -9 -30z"/>
<path d="M1085 7715 c0 -35 8 -44 20 -24 8 12 -2 59 -13 59 -4 0 -7 -16 -7
-35z"/>
<path d="M383 7710 c0 -32 11 -40 21 -15 6 17 -2 45 -13 45 -4 0 -8 -13 -8
-30z"/>
<path d="M418 7529 c3 -20 8 -27 14 -21 11 11 2 52 -11 52 -4 0 -6 -14 -3 -31z"/>
<path d="M1083 7525 c-1 -19 3 -35 8 -35 14 0 14 48 0 63 -4 4 -7 -9 -8 -28z"/>
<path d="M480 7373 c0 -34 13 -44 23 -19 3 8 -1 22 -8 33 -13 17 -14 16 -15
-14z"/>
<path d="M1043 7355 c-1 -34 9 -46 22 -24 8 12 -2 59 -13 59 -5 0 -8 -16 -9
-35z"/>
<path d="M4094 7298 l-19 -23 23 19 c21 18 27 26 19 26 -2 0 -12 -10 -23 -22z"/>
<path d="M564 7240 c-1 -29 9 -39 20 -22 6 10 -4 52 -13 52 -3 0 -6 -14 -7
-30z"/>
<path d="M3716 7219 c-8 -56 -5 -65 19 -55 12 4 15 17 13 53 -4 64 -24 66 -32
2z"/>
<path d="M974 7226 c0 -24 4 -32 14 -29 15 6 13 55 -3 60 -6 2 -11 -11 -11
-31z"/>
<path d="M5130 7177 c0 -59 6 -72 27 -56 23 20 13 109 -13 109 -10 0 -14 -15
-14 -53z"/>
<path d="M3594 7185 c-15 -20 -25 -37 -23 -39 2 -2 16 14 31 35 35 49 28 51
-8 4z"/>
<path d="M5006 7166 c-38 -45 -46 -61 -46 -95 0 -40 -1 -41 -33 -41 -19 0 -37
-3 -41 -7 -4 -4 -25 -6 -46 -4 -24 1 -40 -2 -40 -8 0 -6 -3 -10 -7 -10 -33 5
-43 -3 -43 -35 0 -44 9 -49 73 -40 29 4 43 10 33 12 -25 5 -49 29 -37 36 5 3
35 4 67 1 41 -4 53 -2 39 4 -19 9 -19 10 3 10 13 1 21 5 18 10 -3 5 2 8 12 7
14 -1 17 7 14 45 -2 41 3 54 43 108 25 33 43 61 41 61 -2 0 -24 -24 -50 -54z
m-138 -173 c-10 -2 -26 -2 -35 0 -10 3 -2 5 17 5 19 0 27 -2 18 -5z"/>
<path d="M668 7154 c3 -24 8 -32 14 -26 11 11 3 62 -10 62 -4 0 -6 -16 -4 -36z"/>
<path d="M883 7145 c-1 -30 1 -34 13 -24 17 14 17 20 1 43 -12 16 -13 14 -14
-19z"/>
<path d="M6840 7118 l0 -62 21 21 c18 17 20 28 14 62 -4 25 -12 41 -21 41 -11
0 -14 -15 -14 -62z"/>
<path d="M774 7125 c1 -19 6 -33 11 -32 16 5 17 43 2 55 -11 9 -13 5 -13 -23z"/>
<path d="M3571 7114 c0 -11 3 -14 6 -6 3 7 2 16 -1 19 -3 4 -6 -2 -5 -13z"/>
<path d="M3569 7085 c-3 -2 -38 -6 -79 -9 -41 -3 -76 -10 -78 -16 -2 -5 -10
-10 -18 -10 -9 0 -14 -11 -14 -29 0 -25 5 -31 31 -36 17 -4 33 -4 36 -1 4 3 0
6 -8 6 -11 0 -11 2 1 10 10 6 11 10 3 10 -7 0 -13 7 -13 15 0 11 10 13 40 10
25 -3 38 0 35 5 -4 6 8 10 25 10 18 0 29 -4 25 -10 -4 -6 14 -10 47 -10 34 0
48 3 39 9 -11 7 -11 9 0 14 8 3 -13 6 -46 7 -46 2 -53 4 -30 9 17 4 25 9 19
13 -6 4 -13 6 -15 3z m-98 -34 c-8 -5 -20 -7 -28 -4 -21 8 -15 13 15 13 20 0
23 -3 13 -9z"/>
<path d="M6038 7083 c12 -2 30 -2 40 0 9 3 -1 5 -23 4 -22 0 -30 -2 -17 -4z"/>
<path d="M8113 7083 c-13 -2 -23 -8 -23 -13 0 -5 -12 -11 -27 -13 -16 -2 -5
-5 24 -6 28 0 55 4 59 10 4 8 9 8 17 0 14 -14 77 -14 77 -1 0 6 7 10 15 10 8
0 15 -4 15 -10 0 -5 8 -10 18 -9 10 0 12 3 4 6 -6 2 -9 9 -6 15 4 6 -9 9 -34
7 -23 -2 -44 0 -48 4 -8 7 -53 7 -91 0z"/>
<path d="M8318 7053 c7 -3 16 -2 19 1 4 3 -2 6 -13 5 -11 0 -14 -3 -6 -6z"/>
<path d="M5190 7025 c0 -8 5 -15 10 -15 6 0 10 -5 10 -11 0 -7 -18 -10 -48 -7
-34 2 -49 -1 -49 -9 0 -9 19 -13 59 -13 34 0 57 4 53 9 -10 16 17 25 29 9 13
-17 111 -25 101 -8 -3 6 1 13 10 17 10 3 20 1 24 -6 4 -6 24 -12 45 -13 20 -1
40 -6 43 -11 3 -6 2 -8 -3 -5 -10 6 -27 -11 -32 -30 -2 -10 10 -12 40 -10 40
3 43 5 46 36 4 39 -17 51 -59 35 -34 -13 -39 -1 -6 15 20 10 18 11 -18 10 -22
-1 -59 2 -83 6 -24 5 -48 4 -55 -1 -16 -12 -58 -14 -72 -4 -23 17 -45 20 -45
6z"/>
<path d="M5090 7020 c0 -5 7 -10 15 -10 8 0 15 5 15 10 0 6 -7 10 -15 10 -8 0
-15 -4 -15 -10z"/>
<path d="M4980 6991 c0 -5 -8 -12 -17 -14 -10 -3 13 -5 50 -6 39 -1 66 3 63 8
-4 5 0 12 6 14 7 3 -13 6 -44 6 -32 1 -58 -3 -58 -8z"/>
<path d="M8175 6958 c31 -85 34 -87 34 -25 1 54 0 57 -23 57 -23 0 -23 -2 -11
-32z"/>
<path d="M6748 6973 c7 -3 16 -2 19 1 4 3 -2 6 -13 5 -11 0 -14 -3 -6 -6z"/>
<path d="M6830 6964 c0 -11 -6 -14 -20 -9 -11 3 -20 3 -20 -2 0 -5 11 -10 25
-11 19 -1 25 3 25 18 0 11 -2 20 -5 20 -3 0 -5 -7 -5 -16z"/>
<path d="M6987 6950 c-16 -5 -35 -6 -43 -3 -9 3 -14 0 -12 -8 2 -10 -9 -15
-34 -17 -61 -5 -44 -22 22 -22 33 0 60 4 60 10 0 6 9 10 20 10 11 0 20 -4 20
-10 0 -5 20 -10 45 -10 33 0 45 4 45 15 0 8 9 15 20 15 11 0 20 -7 20 -15 0
-23 24 -17 36 9 11 23 9 24 -40 30 -67 8 -124 6 -159 -4z m140 -6 c-3 -3 -12
-4 -19 -1 -8 3 -5 6 6 6 11 1 17 -2 13 -5z"/>
<path d="M6690 6915 c0 -12 14 -15 63 -15 40 0 57 3 48 9 -11 7 -9 10 10 14
13 2 -9 5 -48 6 -59 1 -73 -2 -73 -14z"/>
<path d="M7215 6920 c-3 -5 3 -10 15 -10 12 0 18 5 15 10 -3 6 -10 10 -15 10
-5 0 -12 -4 -15 -10z"/>
<path d="M7047 6816 c-2 -6 2 -22 10 -36 7 -14 13 -33 13 -42 0 -10 5 -18 11
-18 6 0 9 -16 8 -40 -2 -21 0 -42 3 -46 4 -3 8 39 10 95 l3 101 -27 -2 c-15
-1 -29 -7 -31 -12z"/>
<path d="M8191 6754 c0 -11 3 -14 6 -6 3 7 2 16 -1 19 -3 4 -6 -2 -5 -13z"/>
<path d="M1897 6311 c-38 -9 -65 -19 -61 -24 4 -4 8 -16 9 -26 1 -17 -2 -18
-23 -8 l-25 12 24 6 24 5 -22 8 c-12 4 -30 3 -40 -2 -10 -6 -21 -10 -26 -10
-4 0 -26 -3 -48 -7 -31 -5 -38 -10 -28 -17 9 -6 2 -7 -21 -3 -28 6 -32 4 -23
-5 6 -7 23 -12 37 -12 15 0 26 -6 26 -14 0 -10 -14 -14 -47 -15 -27 0 -57 -4
-68 -9 -21 -8 103 -6 235 5 l75 6 -32 -20 c-18 -12 -33 -23 -33 -26 0 -3 20
-5 45 -5 38 0 45 3 45 20 0 11 -5 20 -11 20 -6 0 -4 7 5 15 8 8 31 15 50 15
39 0 51 19 14 21 -22 1 -22 1 2 9 36 12 72 12 65 0 -4 -6 11 -10 37 -9 32 0
38 2 23 9 -19 7 -19 8 5 14 14 4 34 6 45 5 11 -1 47 -1 80 1 l60 2 -50 9 c-27
4 -98 14 -157 22 -58 8 -110 17 -115 20 -4 2 -39 -3 -76 -12z m-10 -27 c-3 -3
-12 -4 -19 -1 -8 3 -5 6 6 6 11 1 17 -2 13 -5z m-125 -36 c-7 -7 -16 -6 -29 1
-16 11 -15 11 6 5 17 -4 21 -3 16 6 -6 9 -4 11 4 5 9 -5 9 -11 3 -17z m138 18
c0 -2 -9 -6 -20 -9 -11 -3 -18 -1 -14 4 5 9 34 13 34 5z m15 -16 c-3 -5 -14
-10 -23 -9 -14 0 -13 2 3 9 27 11 27 11 20 0z m-5 -74 c0 -3 -4 -8 -10 -11 -5
-3 -10 -1 -10 4 0 6 5 11 10 11 6 0 10 -2 10 -4z"/>
<path d="M8530 6246 c-36 -13 -119 -40 -185 -61 -66 -21 -156 -50 -200 -65
-44 -15 -120 -40 -170 -55 -129 -39 -188 -58 -380 -119 -93 -30 -235 -75 -315
-101 -149 -47 -186 -65 -137 -65 15 0 27 -5 27 -10 0 -6 11 -15 25 -20 14 -5
37 -17 51 -27 15 -9 34 -18 42 -19 8 -2 22 -9 30 -18 11 -10 21 -12 38 -5 15
5 24 5 24 -1 0 -6 -4 -10 -10 -10 -5 0 -10 -4 -10 -10 0 -14 27 -12 33 3 4 10
7 10 18 0 9 -10 10 -13 1 -13 -7 0 -12 -5 -12 -11 0 -5 8 -9 18 -8 9 1 72 1
140 0 122 -1 122 -1 122 -25 0 -21 5 -24 44 -27 24 -2 42 -1 39 4 -2 4 10 7
27 7 17 0 29 -4 26 -8 -2 -4 4 -13 14 -20 16 -10 18 -9 14 3 -4 8 -2 15 4 15
6 0 12 -5 14 -11 4 -12 52 28 62 51 3 8 4 3 1 -12 -5 -26 -4 -27 20 -16 14 6
25 15 25 20 0 4 9 8 20 8 11 0 39 9 63 19 23 11 58 25 79 32 20 7 34 17 32 23
-2 7 11 12 33 13 44 1 126 36 115 48 -4 5 -1 5 5 1 7 -4 27 0 45 8 18 8 65 26
103 41 39 15 88 35 110 45 22 10 66 27 99 39 32 12 78 31 103 42 24 11 99 42
166 68 67 27 154 63 194 80 94 41 103 40 103 -5 0 -41 -11 -42 122 13 48 20
85 39 83 42 -3 2 -82 10 -176 17 -94 7 -176 17 -182 23 -6 6 -18 6 -33 1 -15
-6 -26 -5 -30 2 -4 6 -3 9 2 6 5 -3 17 -3 26 1 16 5 15 8 -3 31 -11 14 -18 20
-17 14 2 -7 0 -12 -4 -13 -22 -3 -28 0 -22 11 4 7 3 8 -4 4 -7 -4 -12 -16 -12
-26 0 -27 -16 -28 -79 -7 -83 28 -273 77 -296 76 -11 0 -49 -11 -85 -23z
m-295 -516 c-11 -5 -29 -8 -40 -8 -16 0 -15 2 5 8 34 11 60 11 35 0z m-128
-56 c-3 -3 -12 -4 -19 -1 -8 3 -5 6 6 6 11 1 17 -2 13 -5z m-132 -24 c-3 -5
-12 -10 -18 -10 -7 0 -6 4 3 10 19 12 23 12 15 0z m-100 -60 c3 -6 -1 -7 -9
-4 -18 7 -21 14 -7 14 6 0 13 -4 16 -10z"/>
<path d="M2720 6230 c0 -5 6 -10 14 -10 8 0 18 5 21 10 3 6 -3 10 -14 10 -12
0 -21 -4 -21 -10z"/>
<path d="M2801 6216 c2 -2 33 -6 69 -9 41 -4 56 -3 40 3 -25 8 -117 14 -109 6z"/>
<path d="M3038 6188 c8 -8 17 -8 34 0 22 10 21 11 -11 11 -27 1 -32 -2 -23
-11z"/>
<path d="M3120 6180 c0 -5 14 -10 31 -10 17 0 28 4 24 10 -3 6 -17 10 -31 10
-13 0 -24 -4 -24 -10z"/>
<path d="M3048 6163 c7 -3 16 -2 19 1 4 3 -2 6 -13 5 -11 0 -14 -3 -6 -6z"/>
<path d="M4018 6093 c12 -2 30 -2 40 0 9 3 -1 5 -23 4 -22 0 -30 -2 -17 -4z"/>
<path d="M9440 6073 c0 -34 -40 -438 -46 -468 -4 -16 -18 -40 -33 -52 -14 -13
-20 -23 -13 -23 7 0 10 -5 7 -10 -3 -6 -17 -7 -31 -4 -20 5 -24 2 -24 -15 0
-29 -61 -56 -72 -32 -4 9 -7 11 -7 4 -1 -7 -7 -13 -15 -13 -17 0 -22 -13 -31
-73 -4 -28 -3 -47 4 -51 7 -5 11 2 11 18 0 28 9 35 168 127 66 38 87 55 72 57
-25 4 -25 12 0 278 11 115 21 224 23 242 2 17 -1 32 -5 32 -4 0 -8 -8 -8 -17z"/>
<path d="M4338 6063 c12 -2 32 -2 45 0 12 2 2 4 -23 4 -25 0 -35 -2 -22 -4z"/>
<path d="M845 5990 c-9 -15 21 -23 53 -15 25 7 25 8 7 15 -28 12 -53 12 -60 0z"/>
<path d="M802 5890 c-10 -17 -10 -20 3 -20 8 0 15 9 15 20 0 11 -1 20 -3 20
-1 0 -8 -9 -15 -20z"/>
<path d="M1472 5789 c-15 -24 -13 -32 7 -20 7 5 11 16 9 25 -2 14 -5 13 -16
-5z"/>
<path d="M2223 5687 c-8 -16 -9 -29 -3 -32 12 -8 23 17 18 41 -2 14 -6 12 -15
-9z"/>
<path d="M3057 5555 c-17 -24 -17 -25 3 -25 15 0 20 6 20 25 0 30 -1 30 -23 0z"/>
<path d="M7775 5540 c-7 -12 2 -12 30 0 19 8 19 9 -2 9 -12 1 -25 -3 -28 -9z"/>
<path d="M9379 5458 c0 -2 -2 -34 -5 -73 -4 -73 -46 -534 -65 -716 -10 -97
-14 -108 -35 -120 -17 -9 -24 -21 -24 -43 -1 -27 -2 -29 -11 -13 -10 17 -14
15 -50 -24 -21 -24 -39 -47 -39 -52 0 -5 -7 -7 -15 -3 -10 3 -17 -3 -21 -19
-3 -13 -12 -29 -20 -36 -16 -13 -20 -104 -4 -94 6 3 10 15 10 25 0 11 49 60
126 126 112 96 124 109 104 116 -19 7 -21 13 -16 50 4 24 13 115 21 203 46
503 55 604 61 638 4 24 2 37 -5 37 -6 0 -11 -1 -12 -2z"/>
<path d="M4012 5418 c-14 -14 -16 -28 -2 -28 5 0 14 9 20 20 12 22 1 27 -18 8z"/>
<path d="M5103 5264 c-16 -25 -18 -34 -8 -34 7 0 15 -6 17 -12 3 -7 8 7 12 31
4 24 5 45 4 46 -2 1 -13 -13 -25 -31z"/>
<path d="M1158 5008 c7 -84 27 -333 45 -553 l32 -400 27 -9 c15 -5 29 -8 32
-5 2 2 -17 254 -43 559 l-46 555 -30 3 -31 3 14 -153z"/>
<path d="M6232 5095 c0 -16 2 -22 5 -12 2 9 2 23 0 30 -3 6 -5 -1 -5 -18z"/>
<path d="M6371 5107 c0 -10 -12 -29 -26 -42 -22 -23 -23 -25 -5 -25 15 0 20
-7 21 -27 1 -16 5 -3 10 27 5 30 8 62 5 70 -3 11 -4 10 -5 -3z"/>
<path d="M6286 5035 c4 -8 8 -15 10 -15 2 0 4 7 4 15 0 8 -4 15 -10 15 -5 0
-7 -7 -4 -15z"/>
<path d="M7063 5005 c0 -22 2 -30 4 -17 2 12 2 30 0 40 -3 9 -5 -1 -4 -23z"/>
<path d="M1840 4999 c0 -12 7 -121 15 -243 9 -121 26 -373 39 -558 12 -186 24
-339 27 -341 2 -3 16 -7 32 -11 25 -6 27 -4 27 26 1 117 -74 1134 -84 1140 -6
4 -21 8 -33 8 -17 0 -23 -6 -23 -21z"/>
<path d="M7021 4944 c0 -11 3 -14 6 -6 3 7 2 16 -1 19 -3 4 -6 -2 -5 -13z"/>
<path d="M6963 4865 c0 -27 2 -38 4 -22 2 15 2 37 0 50 -2 12 -4 0 -4 -28z"/>
<path d="M6981 4894 c0 -11 3 -14 6 -6 3 7 2 16 -1 19 -3 4 -6 -2 -5 -13z"/>
<path d="M2616 4773 c3 -54 18 -332 33 -618 l26 -519 33 -10 c18 -5 35 -7 38
-4 4 5 -6 235 -47 1028 -5 107 -13 198 -17 201 -4 4 -22 10 -40 14 l-32 7 6
-99z"/>
<path d="M6491 4784 c0 -11 3 -14 6 -6 3 7 2 16 -1 19 -3 4 -6 -2 -5 -13z"/>
<path d="M6562 4745 c0 -16 2 -22 5 -12 2 9 2 23 0 30 -3 6 -5 -1 -5 -18z"/>
<path d="M6632 4740 c0 -14 2 -19 5 -12 2 6 2 18 0 25 -3 6 -5 1 -5 -13z"/>
<path d="M6701 4714 c0 -11 3 -14 6 -6 3 7 2 16 -1 19 -3 4 -6 -2 -5 -13z"/>
<path d="M6492 4695 c0 -16 2 -22 5 -12 2 9 2 23 0 30 -3 6 -5 -1 -5 -18z"/>
<path d="M3521 4703 c0 -7 -10 -13 -20 -13 -18 0 -20 -6 -16 -52 2 -29 7 -152
10 -273 3 -121 10 -337 15 -480 5 -143 10 -307 11 -365 1 -58 4 -111 6 -117 5
-12 73 -36 81 -29 4 4 -22 875 -34 1159 -6 133 -8 147 -24 147 -10 0 -21 8
-23 18 -3 9 -5 11 -6 5z"/>
<path d="M8903 4667 c-38 -27 -43 -35 -43 -69 0 -21 4 -38 8 -38 5 0 26 15 46
33 33 28 37 37 34 69 l-3 36 -42 -31z m37 -14 c0 -5 -16 -21 -35 -36 -23 -18
-35 -23 -35 -14 0 7 11 20 25 27 14 7 25 17 25 22 0 4 5 8 10 8 6 0 10 -3 10
-7z"/>
<path d="M6152 4625 c0 -16 2 -22 5 -12 2 9 2 23 0 30 -3 6 -5 -1 -5 -18z"/>
<path d="M6952 4630 c0 -14 2 -19 5 -12 2 6 2 18 0 25 -3 6 -5 1 -5 -13z"/>
<path d="M6421 4624 c0 -11 3 -14 6 -6 3 7 2 16 -1 19 -3 4 -6 -2 -5 -13z"/>
<path d="M6283 4535 c0 -33 2 -45 4 -27 2 18 2 45 0 60 -2 15 -4 0 -4 -33z"/>
<path d="M8897 4548 c-2 -7 -1 -22 4 -33 6 -16 8 -14 8 13 1 33 -4 41 -12 20z"/>
<path d="M6693 4440 c0 -25 2 -35 4 -22 2 12 2 32 0 45 -2 12 -4 2 -4 -23z"/>
<path d="M6763 4425 c0 -33 2 -45 4 -27 2 18 2 45 0 60 -2 15 -4 0 -4 -33z"/>
<path d="M7001 4464 c0 -11 3 -14 6 -6 3 7 2 16 -1 19 -3 4 -6 -2 -5 -13z"/>
<path d="M6833 4400 c0 -30 2 -43 4 -27 2 15 2 39 0 55 -2 15 -4 2 -4 -28z"/>
<path d="M8880 4429 c0 -11 5 -17 10 -14 6 3 10 13 10 21 0 8 -4 14 -10 14 -5
0 -10 -9 -10 -21z"/>
<path d="M6483 4400 c0 -25 2 -35 4 -22 2 12 2 32 0 45 -2 12 -4 2 -4 -23z"/>
<path d="M9287 4430 c-3 -8 -10 -85 -17 -170 -7 -85 -16 -189 -21 -230 l-9
-75 -105 -105 c-58 -58 -105 -110 -105 -115 0 -5 27 17 60 50 33 32 62 56 66
53 3 -4 -24 -36 -60 -72 -36 -37 -66 -70 -66 -74 0 -3 50 43 110 103 61 60
110 111 110 113 0 2 -19 -13 -42 -32 -60 -52 -62 -33 -2 23 l52 49 6 83 c4 46
14 153 22 237 14 140 15 201 1 162z"/>
<path d="M7232 4390 c0 -14 2 -19 5 -12 2 6 2 18 0 25 -3 6 -5 1 -5 -13z"/>
<path d="M5821 4384 c0 -11 3 -14 6 -6 3 7 2 16 -1 19 -3 4 -6 -2 -5 -13z"/>
<path d="M8892 4349 c-18 -16 -37 -27 -42 -24 -6 4 -10 -4 -10 -15 0 -21 2
-20 38 11 32 28 59 60 50 59 -2 0 -18 -14 -36 -31z"/>
<path d="M7546 4345 c-16 -12 -20 -34 -27 -162 -4 -81 -20 -364 -34 -628 -27
-504 -48 -737 -39 -435 5 171 48 986 60 1123 4 49 2 77 -4 77 -15 0 -19 -18
-21 -90 -2 -72 -36 -709 -51 -970 -5 -91 -10 -185 -10 -210 0 -33 -3 -41 -10
-30 -7 11 -10 7 -10 -18 0 -18 -4 -31 -9 -27 -5 3 -13 0 -17 -6 -4 -8 -9 -7
-15 2 -6 10 -9 6 -9 -13 0 -20 -4 -26 -15 -22 -10 4 -15 0 -15 -12 0 -22 -16
-7 -23 21 -2 11 -3 5 -1 -12 3 -33 -10 -54 -19 -31 -3 7 -6 0 -7 -17 -1 -25
-3 -27 -9 -11 -7 19 -8 18 -15 -5 -7 -23 -8 -23 -16 -4 -7 17 -9 14 -10 -15
-1 -29 -3 -32 -10 -15 -8 19 -9 19 -9 -2 -1 -27 -18 -31 -24 -5 -3 9 -6 1 -7
-18 -1 -29 -3 -32 -10 -15 -7 17 -9 15 -9 -12 -1 -33 -20 -57 -22 -26 0 16 -1
16 -9 -2 -6 -16 -9 -12 -12 20 -4 37 -5 35 -7 -15 -2 -44 -5 -50 -11 -30 -7
23 -8 22 -10 -10 -1 -34 -2 -34 -12 -10 l-11 25 -7 -25 c-6 -22 -8 -21 -12 15
-4 37 -5 36 -8 -15 -2 -52 -3 -53 -10 -20 l-7 35 -3 -45 c-2 -42 -3 -43 -10
-15 l-8 30 -1 -35 c-1 -27 -4 -31 -11 -20 -8 13 -10 13 -10 -2 0 -11 -5 -15
-15 -12 -11 4 -15 -1 -16 -17 -1 -17 -4 -14 -9 11 l-7 35 -2 -38 c0 -21 -7
-45 -15 -53 -13 -12 -15 -10 -19 13 -3 22 -5 20 -7 -12 -2 -39 -3 -39 -10 -10
-6 24 -8 18 -9 -32 -1 -39 -6 -63 -13 -66 -17 -6 -9 -14 22 -22 28 -7 56 15
413 323 104 89 197 168 207 175 21 15 18 -29 80 1112 6 105 13 218 16 253 7
67 -1 76 -40 47z"/>
<path d="M5823 4280 c0 -25 2 -35 4 -22 2 12 2 32 0 45 -2 12 -4 2 -4 -23z"/>
<path d="M6342 4295 c0 -16 2 -22 5 -12 2 9 2 23 0 30 -3 6 -5 -1 -5 -18z"/>
<path d="M6411 4304 c0 -11 3 -14 6 -6 3 7 2 16 -1 19 -3 4 -6 -2 -5 -13z"/>
<path d="M6142 4265 c0 -16 2 -22 5 -12 2 9 2 23 0 30 -3 6 -5 -1 -5 -18z"/>
<path d="M7451 4264 c0 -11 3 -14 6 -6 3 7 2 16 -1 19 -3 4 -6 -2 -5 -13z"/>
<path d="M7421 4254 c0 -11 3 -14 6 -6 3 7 2 16 -1 19 -3 4 -6 -2 -5 -13z"/>
<path d="M7401 4234 c0 -11 3 -14 6 -6 3 7 2 16 -1 19 -3 4 -6 -2 -5 -13z"/>
<path d="M6013 4200 c0 -25 2 -35 4 -22 2 12 2 32 0 45 -2 12 -4 2 -4 -23z"/>
<path d="M6342 4220 c0 -14 2 -19 5 -12 2 6 2 18 0 25 -3 6 -5 1 -5 -13z"/>
<path d="M6613 4160 c0 -47 2 -66 4 -42 2 23 2 61 0 85 -2 23 -4 4 -4 -43z"/>
<path d="M6683 4160 c0 -47 2 -66 4 -42 2 23 2 61 0 85 -2 23 -4 4 -4 -43z"/>
<path d="M6751 4224 c0 -11 3 -14 6 -6 3 7 2 16 -1 19 -3 4 -6 -2 -5 -13z"/>
<path d="M6822 4215 c0 -16 2 -22 5 -12 2 9 2 23 0 30 -3 6 -5 -1 -5 -18z"/>
<path d="M7371 4224 c0 -11 3 -14 6 -6 3 7 2 16 -1 19 -3 4 -6 -2 -5 -13z"/>
<path d="M6143 4195 c0 -22 2 -30 4 -17 2 12 2 30 0 40 -3 9 -5 -1 -4 -23z"/>
<path d="M6273 4170 c0 -30 2 -43 4 -27 2 15 2 39 0 55 -2 15 -4 2 -4 -28z"/>
<path d="M7321 4194 c0 -11 3 -14 6 -6 3 7 2 16 -1 19 -3 4 -6 -2 -5 -13z"/>
<path d="M7302 4170 c0 -19 2 -27 5 -17 2 9 2 25 0 35 -3 9 -5 1 -5 -18z"/>
<path d="M7270 4169 c0 -5 5 -7 10 -4 6 3 10 8 10 11 0 2 -4 4 -10 4 -5 0 -10
-5 -10 -11z"/>
<path d="M6543 4120 c0 -25 2 -35 4 -22 2 12 2 32 0 45 -2 12 -4 2 -4 -23z"/>
<path d="M6823 4120 c0 -25 2 -35 4 -22 2 12 2 32 0 45 -2 12 -4 2 -4 -23z"/>
<path d="M7252 4135 c0 -16 2 -22 5 -12 2 9 2 23 0 30 -3 6 -5 -1 -5 -18z"/>
<path d="M6473 4090 c0 -30 2 -43 4 -27 2 15 2 39 0 55 -2 15 -4 2 -4 -28z"/>
<path d="M5882 4100 c0 -14 2 -19 5 -12 2 6 2 18 0 25 -3 6 -5 1 -5 -13z"/>
<path d="M7182 4100 c0 -14 2 -19 5 -12 2 6 2 18 0 25 -3 6 -5 1 -5 -13z"/>
<path d="M7162 4070 c0 -19 2 -27 5 -17 2 9 2 25 0 35 -3 9 -5 1 -5 -18z"/>
<path d="M7232 4080 c0 -14 2 -19 5 -12 2 6 2 18 0 25 -3 6 -5 1 -5 -13z"/>
<path d="M6073 4040 c0 -25 2 -35 4 -22 2 12 2 32 0 45 -2 12 -4 2 -4 -23z"/>
<path d="M6403 4045 c0 -22 2 -30 4 -17 2 12 2 30 0 40 -3 9 -5 -1 -4 -23z"/>
<path d="M7112 4060 c0 -14 2 -19 5 -12 2 6 2 18 0 25 -3 6 -5 1 -5 -13z"/>
<path d="M6202 4005 c0 -16 2 -22 5 -12 2 9 2 23 0 30 -3 6 -5 -1 -5 -18z"/>
<path d="M1240 4005 c0 -35 50 -588 55 -608 5 -19 11 -23 32 -19 25 5 25 6 19
71 -3 36 -15 173 -25 303 -11 131 -22 241 -25 246 -9 15 -56 21 -56 7z"/>
<path d="M7072 4000 c0 -14 2 -19 5 -12 2 6 2 18 0 25 -3 6 -5 1 -5 -13z"/>
<path d="M7965 3989 c-83 -62 -85 -65 -85 -120 l0 -50 43 31 c85 62 86 63 93
118 4 28 3 52 -2 51 -5 0 -27 -14 -49 -30z m35 -32 c0 -12 -89 -87 -104 -87
-19 0 3 32 44 64 49 38 60 43 60 23z"/>
<path d="M6334 3905 c0 -55 1 -76 3 -47 2 29 2 74 0 100 -2 26 -3 2 -3 -53z"/>
<path d="M6402 3980 c0 -14 2 -19 5 -12 2 6 2 18 0 25 -3 6 -5 1 -5 -13z"/>
<path d="M6743 3920 c0 -47 2 -66 4 -42 2 23 2 61 0 85 -2 23 -4 4 -4 -43z"/>
<path d="M6923 3935 c0 -38 2 -53 4 -32 2 20 2 52 0 70 -2 17 -4 1 -4 -38z"/>
<path d="M6981 3984 c0 -11 3 -14 6 -6 3 7 2 16 -1 19 -3 4 -6 -2 -5 -13z"/>
<path d="M6943 3945 c0 -27 2 -38 4 -22 2 15 2 37 0 50 -2 12 -4 0 -4 -28z"/>
<path d="M6961 3974 c0 -11 3 -14 6 -6 3 7 2 16 -1 19 -3 4 -6 -2 -5 -13z"/>
<path d="M6813 3905 c0 -38 2 -53 4 -32 2 20 2 52 0 70 -2 17 -4 1 -4 -38z"/>
<path d="M6673 3895 c0 -38 2 -53 4 -32 2 20 2 52 0 70 -2 17 -4 1 -4 -38z"/>
<path d="M6532 3900 c0 -14 2 -19 5 -12 2 6 2 18 0 25 -3 6 -5 1 -5 -13z"/>
<path d="M6603 3880 c0 -25 2 -35 4 -22 2 12 2 32 0 45 -2 12 -4 2 -4 -23z"/>
<path d="M6263 3820 c0 -47 2 -66 4 -42 2 23 2 61 0 85 -2 23 -4 4 -4 -43z"/>
<path d="M5813 3760 c0 -47 2 -66 4 -42 2 23 2 61 0 85 -2 23 -4 4 -4 -43z"/>
<path d="M6002 3810 c0 -19 2 -27 5 -17 2 9 2 25 0 35 -3 9 -5 1 -5 -18z"/>
<path d="M6463 3760 c0 -47 2 -66 4 -42 2 23 2 61 0 85 -2 23 -4 4 -4 -43z"/>
<path d="M6532 3810 c0 -19 2 -27 5 -17 2 9 2 25 0 35 -3 9 -5 1 -5 -18z"/>
<path d="M7934 3826 c-4 -10 -2 -21 4 -25 5 -3 18 -45 27 -93 l18 -87 -34 -28
c-70 -60 -77 -64 -82 -51 -3 7 -6 0 -6 -15 l-1 -28 61 48 c34 26 64 54 67 62
6 15 -26 197 -39 221 -6 13 -9 12 -15 -4z"/>
<path d="M6133 3775 c0 -22 2 -30 4 -17 2 12 2 30 0 40 -3 9 -5 -1 -4 -23z"/>
<path d="M7924 3755 c4 -26 3 -33 -2 -21 -8 19 -9 18 -15 -5 -9 -34 -7 -59 3
-29 8 24 8 23 9 -7 1 -18 5 -33 11 -33 11 0 7 116 -4 128 -4 4 -5 -11 -2 -33z"/>
<path d="M5874 3600 c0 -91 2 -128 3 -82 2 45 2 119 0 165 -1 45 -3 8 -3 -83z"/>
<path d="M6002 3730 c0 -19 2 -27 5 -17 2 9 2 25 0 35 -3 9 -5 1 -5 -18z"/>
<path d="M6393 3640 c0 -41 2 -58 4 -37 2 20 2 54 0 75 -2 20 -4 3 -4 -38z"/>
<path d="M6063 3645 c0 -27 2 -38 4 -22 2 15 2 37 0 50 -2 12 -4 0 -4 -28z"/>
<path d="M5052 3655 c0 -16 2 -22 5 -12 2 9 2 23 0 30 -3 6 -5 -1 -5 -18z"/>
<path d="M5281 3664 c0 -11 3 -14 6 -6 3 7 2 16 -1 19 -3 4 -6 -2 -5 -13z"/>
<path d="M6001 3664 c0 -11 3 -14 6 -6 3 7 2 16 -1 19 -3 4 -6 -2 -5 -13z"/>
<path d="M6193 3630 c0 -30 2 -43 4 -27 2 15 2 39 0 55 -2 15 -4 2 -4 -28z"/>
<path d="M6323 3600 c0 -47 2 -66 4 -42 2 23 2 61 0 85 -2 23 -4 4 -4 -43z"/>
<path d="M6663 3615 c0 -38 2 -53 4 -32 2 20 2 52 0 70 -2 17 -4 1 -4 -38z"/>
<path d="M6733 3620 c0 -36 2 -50 4 -32 2 17 2 47 0 65 -2 17 -4 3 -4 -33z"/>
<path d="M6803 3625 c0 -33 2 -45 4 -27 2 18 2 45 0 60 -2 15 -4 0 -4 -33z"/>
<path d="M6911 3664 c0 -11 3 -14 6 -6 3 7 2 16 -1 19 -3 4 -6 -2 -5 -13z"/>
<path d="M7880 3620 c-7 -28 -10 -53 -8 -55 3 -3 10 18 16 47 7 28 11 53 8 55
-2 2 -9 -19 -16 -47z"/>
<path d="M6593 3560 c0 -25 2 -35 4 -22 2 12 2 32 0 45 -2 12 -4 2 -4 -23z"/>
<path d="M6523 3535 c0 -33 2 -45 4 -27 2 18 2 45 0 60 -2 15 -4 0 -4 -33z"/>
<path d="M6251 3504 c0 -11 3 -14 6 -6 3 7 2 16 -1 19 -3 4 -6 -2 -5 -13z"/>
<path d="M6452 3495 c0 -16 2 -22 5 -12 2 9 2 23 0 30 -3 6 -5 -1 -5 -18z"/>
<path d="M6794 3395 c0 -49 1 -71 3 -48 2 23 2 64 0 90 -2 26 -3 8 -3 -42z"/>
<path d="M5933 3400 c0 -25 2 -35 4 -22 2 12 2 32 0 45 -2 12 -4 2 -4 -23z"/>
<path d="M6123 3400 c0 -25 2 -35 4 -22 2 12 2 32 0 45 -2 12 -4 2 -4 -23z"/>
<path d="M6253 3385 c0 -33 2 -45 4 -27 2 18 2 45 0 60 -2 15 -4 0 -4 -33z"/>
<path d="M6383 3360 c0 -47 2 -66 4 -42 2 23 2 61 0 85 -2 23 -4 4 -4 -43z"/>
<path d="M6452 3415 c0 -16 2 -22 5 -12 2 9 2 23 0 30 -3 6 -5 -1 -5 -18z"/>
<path d="M6584 3345 c0 -55 1 -76 3 -47 2 29 2 74 0 100 -2 26 -3 2 -3 -53z"/>
<path d="M6652 3410 c0 -19 2 -27 5 -17 2 9 2 25 0 35 -3 9 -5 1 -5 -18z"/>
<path d="M6723 3380 c0 -36 2 -50 4 -32 2 17 2 47 0 65 -2 17 -4 3 -4 -33z"/>
<path d="M5993 3345 c0 -38 2 -53 4 -32 2 20 2 52 0 70 -2 17 -4 1 -4 -38z"/>
<path d="M6512 3340 c0 -14 2 -19 5 -12 2 6 2 18 0 25 -3 6 -5 1 -5 -13z"/>
<path d="M6653 3320 c0 -25 2 -35 4 -22 2 12 2 32 0 45 -2 12 -4 2 -4 -23z"/>
<path d="M4831 3294 c0 -11 3 -14 6 -6 3 7 2 16 -1 19 -3 4 -6 -2 -5 -13z"/>
<path d="M6313 3240 c0 -41 2 -58 4 -37 2 20 2 54 0 75 -2 20 -4 3 -4 -38z"/>
<path d="M6183 3240 c0 -36 2 -50 4 -32 2 17 2 47 0 65 -2 17 -4 3 -4 -33z"/>
<path d="M5741 3264 c0 -11 3 -14 6 -6 3 7 2 16 -1 19 -3 4 -6 -2 -5 -13z"/>
<path d="M6513 3225 c0 -33 2 -45 4 -27 2 18 2 45 0 60 -2 15 -4 0 -4 -33z"/>
<path d="M6053 3210 c0 -30 2 -43 4 -27 2 15 2 39 0 55 -2 15 -4 2 -4 -28z"/>
<path d="M5803 3205 c0 -22 2 -30 4 -17 2 12 2 30 0 40 -3 9 -5 -1 -4 -23z"/>
<path d="M6893 3205 c0 -22 2 -30 4 -17 2 12 2 30 0 40 -3 9 -5 -1 -4 -23z"/>
<path d="M5863 3160 c0 -25 2 -35 4 -22 2 12 2 32 0 45 -2 12 -4 2 -4 -23z"/>
<path d="M6643 3125 c0 -44 2 -61 4 -37 2 23 2 59 0 80 -2 20 -4 1 -4 -43z"/>
<path d="M6783 3145 c0 -33 2 -45 4 -27 2 18 2 45 0 60 -2 15 -4 0 -4 -33z"/>
<path d="M6443 3135 c0 -33 2 -45 4 -27 2 18 2 45 0 60 -2 15 -4 0 -4 -33z"/>
<path d="M6713 3110 c0 -41 2 -58 4 -37 2 20 2 54 0 75 -2 20 -4 3 -4 -38z"/>
<path d="M5924 3000 c0 -69 1 -97 3 -62 2 34 2 90 0 125 -2 34 -3 6 -3 -63z"/>
<path d="M6113 3040 c0 -47 2 -66 4 -42 2 23 2 61 0 85 -2 23 -4 4 -4 -43z"/>
<path d="M6373 3060 c0 -36 2 -50 4 -32 2 17 2 47 0 65 -2 17 -4 3 -4 -33z"/>
<path d="M6573 3040 c0 -47 2 -66 4 -42 2 23 2 61 0 85 -2 23 -4 4 -4 -43z"/>
<path d="M6243 3040 c0 -25 2 -35 4 -22 2 12 2 32 0 45 -2 12 -4 2 -4 -23z"/>
<path d="M5861 3054 c0 -11 3 -14 6 -6 3 7 2 16 -1 19 -3 4 -6 -2 -5 -13z"/>
<path d="M5453 2960 c0 -47 2 -66 4 -42 2 23 2 61 0 85 -2 23 -4 4 -4 -43z"/>
<path d="M6503 2960 c0 -47 2 -66 4 -42 2 23 2 61 0 85 -2 23 -4 4 -4 -43z"/>
<path d="M6304 2890 c0 -52 1 -74 3 -47 2 26 2 68 0 95 -2 26 -3 4 -3 -48z"/>
<path d="M6881 2964 c0 -11 3 -14 6 -6 3 7 2 16 -1 19 -3 4 -6 -2 -5 -13z"/>
<path d="M5981 2944 c0 -11 3 -14 6 -6 3 7 2 16 -1 19 -3 4 -6 -2 -5 -13z"/>
<path d="M6172 2940 c0 -14 2 -19 5 -12 2 6 2 18 0 25 -3 6 -5 1 -5 -13z"/>
<path d="M6703 2920 c0 -25 2 -35 4 -22 2 12 2 32 0 45 -2 12 -4 2 -4 -23z"/>
<path d="M6773 2890 c0 -41 2 -58 4 -37 2 20 2 54 0 75 -2 20 -4 3 -4 -38z"/>
<path d="M6634 2825 c0 -49 1 -71 3 -48 2 23 2 64 0 90 -2 26 -3 8 -3 -42z"/>
<path d="M5983 2840 c0 -25 2 -35 4 -22 2 12 2 32 0 45 -2 12 -4 2 -4 -23z"/>
<path d="M6043 2800 c0 -47 2 -66 4 -42 2 23 2 61 0 85 -2 23 -4 4 -4 -43z"/>
<path d="M6173 2830 c0 -30 2 -43 4 -27 2 15 2 39 0 55 -2 15 -4 2 -4 -28z"/>
<path d="M6432 2860 c0 -14 2 -19 5 -12 2 6 2 18 0 25 -3 6 -5 1 -5 -13z"/>
<path d="M7406 2798 c-2 -13 -12 -171 -21 -351 l-17 -328 -58 -58 c-32 -33
-61 -56 -64 -53 -3 3 -6 0 -6 -7 0 -6 -9 -21 -20 -33 -11 -12 -20 -18 -20 -14
0 5 -10 -4 -22 -20 -13 -16 -25 -30 -29 -32 -3 -1 -72 -68 -152 -147 -79 -79
-148 -141 -151 -138 -3 4 -6 -2 -6 -13 0 -16 -2 -17 -10 -4 -8 12 -10 9 -10
-13 0 -23 3 -26 18 -18 9 5 29 22 43 38 14 15 134 135 266 265 l240 238 17
317 c9 175 19 335 22 356 6 40 -12 54 -20 15z"/>
<path d="M6364 2715 c0 -49 1 -71 3 -48 2 23 2 64 0 90 -2 26 -3 8 -3 -42z"/>
<path d="M6563 2735 c0 -33 2 -45 4 -27 2 18 2 45 0 60 -2 15 -4 0 -4 -33z"/>
<path d="M6233 2685 c0 -44 2 -61 4 -37 2 23 2 59 0 80 -2 20 -4 1 -4 -43z"/>
<path d="M6101 2734 c0 -11 3 -14 6 -6 3 7 2 16 -1 19 -3 4 -6 -2 -5 -13z"/>
<path d="M5792 2695 c0 -16 2 -22 5 -12 2 9 2 23 0 30 -3 6 -5 -1 -5 -18z"/>
<path d="M5852 2690 c0 -19 2 -27 5 -17 2 9 2 25 0 35 -3 9 -5 1 -5 -18z"/>
<path d="M6693 2640 c0 -47 2 -66 4 -42 2 23 2 61 0 85 -2 23 -4 4 -4 -43z"/>
<path d="M6763 2640 c0 -47 2 -66 4 -42 2 23 2 61 0 85 -2 23 -4 4 -4 -43z"/>
<path d="M5732 2615 c0 -16 2 -22 5 -12 2 9 2 23 0 30 -3 6 -5 -1 -5 -18z"/>
<path d="M6293 2580 c0 -36 2 -50 4 -32 2 17 2 47 0 65 -2 17 -4 3 -4 -33z"/>
<path d="M6493 2600 c0 -25 2 -35 4 -22 2 12 2 32 0 45 -2 12 -4 2 -4 -23z"/>
<path d="M6622 2615 c0 -16 2 -22 5 -12 2 9 2 23 0 30 -3 6 -5 -1 -5 -18z"/>
<path d="M6423 2555 c0 -38 2 -53 4 -32 2 20 2 52 0 70 -2 17 -4 1 -4 -38z"/>
<path d="M6164 2505 c0 -49 1 -71 3 -48 2 23 2 64 0 90 -2 26 -3 8 -3 -42z"/>
<path d="M5913 2520 c0 -25 2 -35 4 -22 2 12 2 32 0 45 -2 12 -4 2 -4 -23z"/>
<path d="M6623 2520 c0 -25 2 -35 4 -22 2 12 2 32 0 45 -2 12 -4 2 -4 -23z"/>
<path d="M6553 2475 c0 -38 2 -53 4 -32 2 20 2 52 0 70 -2 17 -4 1 -4 -38z"/>
<path d="M5971 2464 c0 -11 3 -14 6 -6 3 7 2 16 -1 19 -3 4 -6 -2 -5 -13z"/>
<path d="M6223 2400 c0 -47 2 -66 4 -42 2 23 2 61 0 85 -2 23 -4 4 -4 -43z"/>
<path d="M6753 2380 c0 -36 2 -50 4 -32 2 17 2 47 0 65 -2 17 -4 3 -4 -33z"/>
<path d="M6033 2360 c0 -25 2 -35 4 -22 2 12 2 32 0 45 -2 12 -4 2 -4 -23z"/>
<path d="M6353 2360 c0 -25 2 -35 4 -22 2 12 2 32 0 45 -2 12 -4 2 -4 -23z"/>
<path d="M6483 2340 c0 -36 2 -50 4 -32 2 17 2 47 0 65 -2 17 -4 3 -4 -33z"/>
<path d="M6683 2335 c0 -38 2 -53 4 -32 2 20 2 52 0 70 -2 17 -4 1 -4 -38z"/>
<path d="M6853 2340 c0 -25 2 -35 4 -22 2 12 2 32 0 45 -2 12 -4 2 -4 -23z"/>
<path d="M6891 2354 c0 -11 3 -14 6 -6 3 7 2 16 -1 19 -3 4 -6 -2 -5 -13z"/>
<path d="M6872 2340 c0 -14 2 -19 5 -12 2 6 2 18 0 25 -3 6 -5 1 -5 -13z"/>
<path d="M6412 2265 c0 -16 2 -22 5 -12 2 9 2 23 0 30 -3 6 -5 -1 -5 -18z"/>
<path d="M6612 2255 c0 -16 2 -22 5 -12 2 9 2 23 0 30 -3 6 -5 -1 -5 -18z"/>
<path d="M6543 2200 c0 -25 2 -35 4 -22 2 12 2 32 0 45 -2 12 -4 2 -4 -23z"/>
<path d="M6743 2200 c0 -25 2 -35 4 -22 2 12 2 32 0 45 -2 12 -4 2 -4 -23z"/>
<path d="M6152 2100 c0 -14 2 -19 5 -12 2 6 2 18 0 25 -3 6 -5 1 -5 -13z"/>
<path d="M6472 2100 c0 -14 2 -19 5 -12 2 6 2 18 0 25 -3 6 -5 1 -5 -13z"/>
<path d="M6843 2040 c0 -25 2 -35 4 -22 2 12 2 32 0 45 -2 12 -4 2 -4 -23z"/>
<path d="M6472 2020 c0 -19 2 -27 5 -17 2 9 2 25 0 35 -3 9 -5 1 -5 -18z"/>
<path d="M6602 1980 c0 -14 2 -19 5 -12 2 6 2 18 0 25 -3 6 -5 1 -5 -13z"/>
<path d="M6731 1904 c0 -11 3 -14 6 -6 3 7 2 16 -1 19 -3 4 -6 -2 -5 -13z"/>
<path d="M6333 1800 c0 -25 2 -35 4 -22 2 12 2 32 0 45 -2 12 -4 2 -4 -23z"/>
<path d="M6461 1824 c0 -11 3 -14 6 -6 3 7 2 16 -1 19 -3 4 -6 -2 -5 -13z"/>
<path d="M6996 1613 c-6 -14 -5 -15 5 -6 7 7 10 15 7 18 -3 3 -9 -2 -12 -12z"/>
<path d="M7025 1610 c-3 -6 1 -7 9 -4 18 7 21 14 7 14 -6 0 -13 -4 -16 -10z"/>
<path d="M7804 1404 c-18 -14 -18 -14 6 -3 31 14 36 19 24 19 -6 0 -19 -7 -30
-16z"/>
<path d="M7755 1380 c-3 -6 1 -7 9 -4 18 7 21 14 7 14 -6 0 -13 -4 -16 -10z"/>
</g>
</svg>
